<?xml version="1.0" encoding="UTF-8" standalone="no"?>
<!DOCTYPE svg PUBLIC "-//W3C//DTD SVG 1.1//EN"
 "http://www.w3.org/Graphics/SVG/1.1/DTD/svg11.dtd">
<!-- Generated by graphviz version 2.44.0 ()
 -->
<!-- Title: lib/include/CloudSync/exceptions/cloud/CloudException.hpp Pages: 1 -->
<svg width="188pt" height="162pt"
 viewBox="0.00 0.00 188.00 162.00" xmlns="http://www.w3.org/2000/svg" xmlns:xlink="http://www.w3.org/1999/xlink">
<g id="graph0" class="graph" transform="scale(1 1) rotate(0) translate(4 158)">
<title>lib/include/CloudSync/exceptions/cloud/CloudException.hpp</title>
<!-- Node1 -->
<g id="node1" class="node">
<title>Node1</title>
<g id="a_node1"><a xlink:title=" ">
<polygon fill="#bfbfbf" stroke="black" points="0,-123.5 0,-153.5 180,-153.5 180,-123.5 0,-123.5"/>
<text text-anchor="start" x="8" y="-141.5" font-family="Helvetica,sans-Serif" font-size="10.00">lib/include/CloudSync</text>
<text text-anchor="middle" x="90" y="-130.5" font-family="Helvetica,sans-Serif" font-size="10.00">/exceptions/cloud/CloudException.hpp</text>
</a>
</g>
</g>
<!-- Node2 -->
<g id="node2" class="node">
<title>Node2</title>
<g id="a_node2"><a xlink:href="_exception_8hpp.html" target="_top" xlink:title=" ">
<polygon fill="none" stroke="black" points="33.5,-56.5 33.5,-86.5 146.5,-86.5 146.5,-56.5 33.5,-56.5"/>
<text text-anchor="start" x="41.5" y="-74.5" font-family="Helvetica,sans-Serif" font-size="10.00">CloudSync/exceptions</text>
<text text-anchor="middle" x="90" y="-63.5" font-family="Helvetica,sans-Serif" font-size="10.00">/Exception.hpp</text>
</a>
</g>
</g>
<!-- Node1&#45;&gt;Node2 -->
<g id="edge1" class="edge">
<title>Node1&#45;&gt;Node2</title>
<path fill="none" stroke="midnightblue" d="M90,-123.4C90,-115.64 90,-105.81 90,-96.86"/>
<polygon fill="midnightblue" stroke="midnightblue" points="93.5,-96.58 90,-86.58 86.5,-96.58 93.5,-96.58"/>
</g>
<!-- Node3 -->
<g id="node3" class="node">
<title>Node3</title>
<g id="a_node3"><a xlink:title=" ">
<polygon fill="none" stroke="#bfbfbf" points="26.5,-0.5 26.5,-19.5 85.5,-19.5 85.5,-0.5 26.5,-0.5"/>
<text text-anchor="middle" x="56" y="-7.5" font-family="Helvetica,sans-Serif" font-size="10.00">stdexcept</text>
</a>
</g>
</g>
<!-- Node2&#45;&gt;Node3 -->
<g id="edge2" class="edge">
<title>Node2&#45;&gt;Node3</title>
<path fill="none" stroke="midnightblue" d="M81.94,-56.4C77.15,-48.02 71.04,-37.33 65.96,-28.42"/>
<polygon fill="midnightblue" stroke="midnightblue" points="68.95,-26.6 60.95,-19.66 62.87,-30.08 68.95,-26.6"/>
</g>
<!-- Node4 -->
<g id="node4" class="node">
<title>Node4</title>
<g id="a_node4"><a xlink:title=" ">
<polygon fill="none" stroke="#bfbfbf" points="103.5,-0.5 103.5,-19.5 144.5,-19.5 144.5,-0.5 103.5,-0.5"/>
<text text-anchor="middle" x="124" y="-7.5" font-family="Helvetica,sans-Serif" font-size="10.00">string</text>
</a>
</g>
</g>
<!-- Node2&#45;&gt;Node4 -->
<g id="edge3" class="edge">
<title>Node2&#45;&gt;Node4</title>
<path fill="none" stroke="midnightblue" d="M98.06,-56.4C102.85,-48.02 108.96,-37.33 114.04,-28.42"/>
<polygon fill="midnightblue" stroke="midnightblue" points="117.13,-30.08 119.05,-19.66 111.05,-26.6 117.13,-30.08"/>
</g>
</g>
</svg>
