<?xml version="1.0" encoding="UTF-8" standalone="no"?>
<!DOCTYPE svg PUBLIC "-//W3C//DTD SVG 1.1//EN"
 "http://www.w3.org/Graphics/SVG/1.1/DTD/svg11.dtd">
<!-- Generated by graphviz version 2.44.0 ()
 -->
<!-- Title: lib/include/CloudSync/CloudFactory.hpp Pages: 1 -->
<svg width="459pt" height="319pt"
 viewBox="0.00 0.00 458.50 319.00" xmlns="http://www.w3.org/2000/svg" xmlns:xlink="http://www.w3.org/1999/xlink">
<g id="graph0" class="graph" transform="scale(1 1) rotate(0) translate(4 315)">
<title>lib/include/CloudSync/CloudFactory.hpp</title>
<!-- Node1 -->
<g id="node1" class="node">
<title>Node1</title>
<g id="a_node1"><a xlink:title=" ">
<polygon fill="#bfbfbf" stroke="black" points="167,-280.5 167,-310.5 277,-310.5 277,-280.5 167,-280.5"/>
<text text-anchor="start" x="175" y="-298.5" font-family="Helvetica,sans-Serif" font-size="10.00">lib/include/CloudSync</text>
<text text-anchor="middle" x="222" y="-287.5" font-family="Helvetica,sans-Serif" font-size="10.00">/CloudFactory.hpp</text>
</a>
</g>
</g>
<!-- Node2 -->
<g id="node2" class="node">
<title>Node2</title>
<g id="a_node2"><a xlink:href="_cloud_8hpp.html" target="_top" xlink:title=" ">
<polygon fill="none" stroke="black" points="131.5,-224.5 131.5,-243.5 190.5,-243.5 190.5,-224.5 131.5,-224.5"/>
<text text-anchor="middle" x="161" y="-231.5" font-family="Helvetica,sans-Serif" font-size="10.00">Cloud.hpp</text>
</a>
</g>
</g>
<!-- Node1&#45;&gt;Node2 -->
<g id="edge1" class="edge">
<title>Node1&#45;&gt;Node2</title>
<path fill="none" stroke="midnightblue" d="M207.54,-280.4C198.41,-271.49 186.58,-259.95 177.14,-250.74"/>
<polygon fill="midnightblue" stroke="midnightblue" points="179.48,-248.13 169.88,-243.66 174.59,-253.15 179.48,-248.13"/>
</g>
<!-- Node11 -->
<g id="node11" class="node">
<title>Node11</title>
<g id="a_node11"><a xlink:href="_o_auth2_credentials_8hpp.html" target="_top" xlink:title=" ">
<polygon fill="none" stroke="black" points="292,-56.5 292,-75.5 408,-75.5 408,-56.5 292,-56.5"/>
<text text-anchor="middle" x="350" y="-63.5" font-family="Helvetica,sans-Serif" font-size="10.00">OAuth2Credentials.hpp</text>
</a>
</g>
</g>
<!-- Node1&#45;&gt;Node11 -->
<g id="edge11" class="edge">
<title>Node1&#45;&gt;Node11</title>
<path fill="none" stroke="midnightblue" d="M230.01,-280.27C252.35,-240.56 315.34,-128.61 339.96,-84.85"/>
<polygon fill="midnightblue" stroke="midnightblue" points="343.12,-86.36 344.98,-75.93 337.02,-82.93 343.12,-86.36"/>
</g>
<!-- Node14 -->
<g id="node14" class="node">
<title>Node14</title>
<g id="a_node14"><a xlink:href="_basic_credentials_8hpp.html" target="_top" xlink:title=" ">
<polygon fill="none" stroke="black" points="166,-56.5 166,-75.5 274,-75.5 274,-56.5 166,-56.5"/>
<text text-anchor="middle" x="220" y="-63.5" font-family="Helvetica,sans-Serif" font-size="10.00">BasicCredentials.hpp</text>
</a>
</g>
</g>
<!-- Node1&#45;&gt;Node14 -->
<g id="edge16" class="edge">
<title>Node1&#45;&gt;Node14</title>
<path fill="none" stroke="midnightblue" d="M221.87,-280.27C221.53,-240.89 220.56,-130.49 220.17,-85.97"/>
<polygon fill="midnightblue" stroke="midnightblue" points="223.67,-85.9 220.08,-75.93 216.67,-85.96 223.67,-85.9"/>
</g>
<!-- Node3 -->
<g id="node3" class="node">
<title>Node3</title>
<g id="a_node3"><a xlink:href="_directory_8hpp.html" target="_top" xlink:title=" ">
<polygon fill="none" stroke="black" points="120.5,-168.5 120.5,-187.5 193.5,-187.5 193.5,-168.5 120.5,-168.5"/>
<text text-anchor="middle" x="157" y="-175.5" font-family="Helvetica,sans-Serif" font-size="10.00">Directory.hpp</text>
</a>
</g>
</g>
<!-- Node2&#45;&gt;Node3 -->
<g id="edge2" class="edge">
<title>Node2&#45;&gt;Node3</title>
<path fill="none" stroke="midnightblue" d="M160.34,-224.08C159.82,-217.01 159.06,-206.86 158.41,-197.99"/>
<polygon fill="midnightblue" stroke="midnightblue" points="161.88,-197.47 157.65,-187.75 154.9,-197.98 161.88,-197.47"/>
</g>
<!-- Node4 -->
<g id="node4" class="node">
<title>Node4</title>
<g id="a_node4"><a xlink:href="_file_8hpp.html" target="_top" xlink:title=" ">
<polygon fill="none" stroke="black" points="134,-112.5 134,-131.5 184,-131.5 184,-112.5 134,-112.5"/>
<text text-anchor="middle" x="159" y="-119.5" font-family="Helvetica,sans-Serif" font-size="10.00">File.hpp</text>
</a>
</g>
</g>
<!-- Node3&#45;&gt;Node4 -->
<g id="edge3" class="edge">
<title>Node3&#45;&gt;Node4</title>
<path fill="none" stroke="midnightblue" d="M157.33,-168.08C157.59,-161.01 157.97,-150.86 158.3,-141.99"/>
<polygon fill="midnightblue" stroke="midnightblue" points="161.8,-141.87 158.68,-131.75 154.81,-141.61 161.8,-141.87"/>
</g>
<!-- Node5 -->
<g id="node5" class="node">
<title>Node5</title>
<g id="a_node5"><a xlink:href="_resource_8hpp.html" target="_top" xlink:title=" ">
<polygon fill="none" stroke="black" points="72,-56.5 72,-75.5 148,-75.5 148,-56.5 72,-56.5"/>
<text text-anchor="middle" x="110" y="-63.5" font-family="Helvetica,sans-Serif" font-size="10.00">Resource.hpp</text>
</a>
</g>
</g>
<!-- Node3&#45;&gt;Node5 -->
<g id="edge10" class="edge">
<title>Node3&#45;&gt;Node5</title>
<path fill="none" stroke="midnightblue" d="M149.25,-168.34C141.94,-159.72 131.21,-145.81 125,-132 118.39,-117.29 114.53,-99.36 112.39,-86.06"/>
<polygon fill="midnightblue" stroke="midnightblue" points="115.8,-85.16 110.92,-75.76 108.87,-86.15 115.8,-85.16"/>
</g>
<!-- Node4&#45;&gt;Node5 -->
<g id="edge4" class="edge">
<title>Node4&#45;&gt;Node5</title>
<path fill="none" stroke="midnightblue" d="M150.91,-112.08C143.84,-104.3 133.41,-92.8 124.85,-83.37"/>
<polygon fill="midnightblue" stroke="midnightblue" points="127.25,-80.8 117.94,-75.75 122.07,-85.51 127.25,-80.8"/>
</g>
<!-- Node6 -->
<g id="node6" class="node">
<title>Node6</title>
<g id="a_node6"><a xlink:title=" ">
<polygon fill="none" stroke="#bfbfbf" points="257.5,-0.5 257.5,-19.5 308.5,-19.5 308.5,-0.5 257.5,-0.5"/>
<text text-anchor="middle" x="283" y="-7.5" font-family="Helvetica,sans-Serif" font-size="10.00">memory</text>
</a>
</g>
</g>
<!-- Node5&#45;&gt;Node6 -->
<g id="edge5" class="edge">
<title>Node5&#45;&gt;Node6</title>
<path fill="none" stroke="midnightblue" d="M137.41,-56.44C167.29,-47.12 215.17,-32.17 247.81,-21.99"/>
<polygon fill="midnightblue" stroke="midnightblue" points="248.9,-25.31 257.41,-18.99 246.82,-18.63 248.9,-25.31"/>
</g>
<!-- Node7 -->
<g id="node7" class="node">
<title>Node7</title>
<g id="a_node7"><a xlink:title=" ">
<polygon fill="none" stroke="#bfbfbf" points="198.5,-0.5 198.5,-19.5 239.5,-19.5 239.5,-0.5 198.5,-0.5"/>
<text text-anchor="middle" x="219" y="-7.5" font-family="Helvetica,sans-Serif" font-size="10.00">string</text>
</a>
</g>
</g>
<!-- Node5&#45;&gt;Node7 -->
<g id="edge6" class="edge">
<title>Node5&#45;&gt;Node7</title>
<path fill="none" stroke="midnightblue" d="M127.51,-56.32C145.07,-47.62 172.33,-34.12 192.53,-24.11"/>
<polygon fill="midnightblue" stroke="midnightblue" points="194.12,-27.23 201.53,-19.65 191.02,-20.96 194.12,-27.23"/>
</g>
<!-- Node8 -->
<g id="node8" class="node">
<title>Node8</title>
<g id="a_node8"><a xlink:title=" ">
<polygon fill="none" stroke="#bfbfbf" points="62.5,-0.5 62.5,-19.5 101.5,-19.5 101.5,-0.5 62.5,-0.5"/>
<text text-anchor="middle" x="82" y="-7.5" font-family="Helvetica,sans-Serif" font-size="10.00">utility</text>
</a>
</g>
</g>
<!-- Node5&#45;&gt;Node8 -->
<g id="edge7" class="edge">
<title>Node5&#45;&gt;Node8</title>
<path fill="none" stroke="midnightblue" d="M105.38,-56.08C101.54,-48.69 95.98,-37.95 91.24,-28.81"/>
<polygon fill="midnightblue" stroke="midnightblue" points="94.25,-27.02 86.54,-19.75 88.03,-30.24 94.25,-27.02"/>
</g>
<!-- Node9 -->
<g id="node9" class="node">
<title>Node9</title>
<g id="a_node9"><a xlink:title=" ">
<polygon fill="none" stroke="#bfbfbf" points="120,-0.5 120,-19.5 180,-19.5 180,-0.5 120,-0.5"/>
<text text-anchor="middle" x="150" y="-7.5" font-family="Helvetica,sans-Serif" font-size="10.00">filesystem</text>
</a>
</g>
</g>
<!-- Node5&#45;&gt;Node9 -->
<g id="edge8" class="edge">
<title>Node5&#45;&gt;Node9</title>
<path fill="none" stroke="midnightblue" d="M116.61,-56.08C122.26,-48.46 130.54,-37.26 137.45,-27.94"/>
<polygon fill="midnightblue" stroke="midnightblue" points="140.38,-29.87 143.52,-19.75 134.75,-25.7 140.38,-29.87"/>
</g>
<!-- Node10 -->
<g id="node10" class="node">
<title>Node10</title>
<g id="a_node10"><a xlink:title=" ">
<polygon fill="none" stroke="#bfbfbf" points="0,-0.5 0,-19.5 44,-19.5 44,-0.5 0,-0.5"/>
<text text-anchor="middle" x="22" y="-7.5" font-family="Helvetica,sans-Serif" font-size="10.00">vector</text>
</a>
</g>
</g>
<!-- Node5&#45;&gt;Node10 -->
<g id="edge9" class="edge">
<title>Node5&#45;&gt;Node10</title>
<path fill="none" stroke="midnightblue" d="M95.86,-56.32C82.13,-47.9 61.06,-34.97 44.94,-25.07"/>
<polygon fill="midnightblue" stroke="midnightblue" points="46.46,-21.9 36.1,-19.65 42.8,-27.87 46.46,-21.9"/>
</g>
<!-- Node11&#45;&gt;Node6 -->
<g id="edge13" class="edge">
<title>Node11&#45;&gt;Node6</title>
<path fill="none" stroke="midnightblue" d="M339.24,-56.32C329.23,-48.26 314.11,-36.08 302.07,-26.37"/>
<polygon fill="midnightblue" stroke="midnightblue" points="303.94,-23.38 293.96,-19.83 299.55,-28.83 303.94,-23.38"/>
</g>
<!-- Node11&#45;&gt;Node7 -->
<g id="edge14" class="edge">
<title>Node11&#45;&gt;Node7</title>
<path fill="none" stroke="midnightblue" d="M329.24,-56.44C307.68,-47.56 273.74,-33.56 249.21,-23.45"/>
<polygon fill="midnightblue" stroke="midnightblue" points="250.24,-20.09 239.66,-19.52 247.57,-26.56 250.24,-20.09"/>
</g>
<!-- Node12 -->
<g id="node12" class="node">
<title>Node12</title>
<g id="a_node12"><a xlink:title=" ">
<polygon fill="none" stroke="#bfbfbf" points="327,-0.5 327,-19.5 373,-19.5 373,-0.5 327,-0.5"/>
<text text-anchor="middle" x="350" y="-7.5" font-family="Helvetica,sans-Serif" font-size="10.00">chrono</text>
</a>
</g>
</g>
<!-- Node11&#45;&gt;Node12 -->
<g id="edge12" class="edge">
<title>Node11&#45;&gt;Node12</title>
<path fill="none" stroke="midnightblue" d="M350,-56.08C350,-49.01 350,-38.86 350,-29.99"/>
<polygon fill="midnightblue" stroke="midnightblue" points="353.5,-29.75 350,-19.75 346.5,-29.75 353.5,-29.75"/>
</g>
<!-- Node13 -->
<g id="node13" class="node">
<title>Node13</title>
<g id="a_node13"><a xlink:title=" ">
<polygon fill="none" stroke="#bfbfbf" points="391.5,-0.5 391.5,-19.5 450.5,-19.5 450.5,-0.5 391.5,-0.5"/>
<text text-anchor="middle" x="421" y="-7.5" font-family="Helvetica,sans-Serif" font-size="10.00">functional</text>
</a>
</g>
</g>
<!-- Node11&#45;&gt;Node13 -->
<g id="edge15" class="edge">
<title>Node11&#45;&gt;Node13</title>
<path fill="none" stroke="midnightblue" d="M361.41,-56.32C372.11,-48.18 388.34,-35.84 401.16,-26.09"/>
<polygon fill="midnightblue" stroke="midnightblue" points="403.54,-28.67 409.39,-19.83 399.31,-23.1 403.54,-28.67"/>
</g>
<!-- Node14&#45;&gt;Node6 -->
<g id="edge18" class="edge">
<title>Node14&#45;&gt;Node6</title>
<path fill="none" stroke="midnightblue" d="M230.12,-56.32C239.53,-48.26 253.74,-36.08 265.07,-26.37"/>
<polygon fill="midnightblue" stroke="midnightblue" points="267.38,-29 272.69,-19.83 262.82,-23.68 267.38,-29"/>
</g>
<!-- Node14&#45;&gt;Node7 -->
<g id="edge17" class="edge">
<title>Node14&#45;&gt;Node7</title>
<path fill="none" stroke="midnightblue" d="M219.83,-56.08C219.7,-49.01 219.52,-38.86 219.35,-29.99"/>
<polygon fill="midnightblue" stroke="midnightblue" points="222.85,-29.68 219.16,-19.75 215.85,-29.81 222.85,-29.68"/>
</g>
</g>
</svg>
