<?xml version="1.0" encoding="UTF-8" standalone="no"?>
<!DOCTYPE svg PUBLIC "-//W3C//DTD SVG 1.1//EN"
 "http://www.w3.org/Graphics/SVG/1.1/DTD/svg11.dtd">
<!-- Generated by graphviz version 2.44.0 ()
 -->
<!-- Title: lib/include/CloudSync/exceptions/Exception.hpp Pages: 1 -->
<svg width="328pt" height="117pt"
 viewBox="0.00 0.00 327.50 117.00" xmlns="http://www.w3.org/2000/svg" xmlns:xlink="http://www.w3.org/1999/xlink">
<g id="graph0" class="graph" transform="scale(1 1) rotate(0) translate(4 113)">
<title>lib/include/CloudSync/exceptions/Exception.hpp</title>
<!-- Node1 -->
<g id="node1" class="node">
<title>Node1</title>
<g id="a_node1"><a xlink:title=" ">
<polygon fill="#bfbfbf" stroke="black" points="109.5,-78.5 109.5,-108.5 238.5,-108.5 238.5,-78.5 109.5,-78.5"/>
<text text-anchor="start" x="117.5" y="-96.5" font-family="Helvetica,sans-Serif" font-size="10.00">lib/include/CloudSync</text>
<text text-anchor="middle" x="174" y="-85.5" font-family="Helvetica,sans-Serif" font-size="10.00">/exceptions/Exception.hpp</text>
</a>
</g>
</g>
<!-- Node2 -->
<g id="node2" class="node">
<title>Node2</title>
<g id="a_node2"><a xlink:href="_cloud_exception_8hpp.html" target="_top" xlink:title=" ">
<polygon fill="none" stroke="black" points="0,-6 0,-36 180,-36 180,-6 0,-6"/>
<text text-anchor="start" x="8" y="-24" font-family="Helvetica,sans-Serif" font-size="10.00">lib/include/CloudSync</text>
<text text-anchor="middle" x="90" y="-13" font-family="Helvetica,sans-Serif" font-size="10.00">/exceptions/cloud/CloudException.hpp</text>
</a>
</g>
</g>
<!-- Node1&#45;&gt;Node2 -->
<g id="edge1" class="edge">
<title>Node1&#45;&gt;Node2</title>
<path fill="none" stroke="midnightblue" d="M149.32,-71.79C135.59,-60.27 118.87,-46.23 106.69,-36"/>
<polygon fill="midnightblue" stroke="midnightblue" points="147.09,-74.49 157,-78.23 151.59,-69.12 147.09,-74.49"/>
</g>
<!-- Node3 -->
<g id="node3" class="node">
<title>Node3</title>
<g id="a_node3"><a xlink:href="_resource_exception_8hpp.html" target="_top" xlink:title=" ">
<polygon fill="none" stroke="black" points="198.5,-0.5 198.5,-41.5 319.5,-41.5 319.5,-0.5 198.5,-0.5"/>
<text text-anchor="start" x="206.5" y="-29.5" font-family="Helvetica,sans-Serif" font-size="10.00">lib/include/CloudSync</text>
<text text-anchor="start" x="206.5" y="-18.5" font-family="Helvetica,sans-Serif" font-size="10.00">/exceptions/resource</text>
<text text-anchor="middle" x="259" y="-7.5" font-family="Helvetica,sans-Serif" font-size="10.00">/ResourceException.hpp</text>
</a>
</g>
</g>
<!-- Node1&#45;&gt;Node3 -->
<g id="edge2" class="edge">
<title>Node1&#45;&gt;Node3</title>
<path fill="none" stroke="midnightblue" d="M199.13,-71.66C210.6,-62.15 224.1,-50.94 235.38,-41.59"/>
<polygon fill="midnightblue" stroke="midnightblue" points="196.66,-69.16 191.2,-78.23 201.13,-74.54 196.66,-69.16"/>
</g>
</g>
</svg>
