<?xml version="1.0" encoding="UTF-8" standalone="no"?>
<!DOCTYPE svg PUBLIC "-//W3C//DTD SVG 1.1//EN"
 "http://www.w3.org/Graphics/SVG/1.1/DTD/svg11.dtd">
<!-- Generated by graphviz version 2.44.0 ()
 -->
<!-- Title: lib/include/CloudSync/exceptions/resource/ResourceException.hpp Pages: 1 -->
<svg width="264pt" height="173pt"
 viewBox="0.00 0.00 263.50 173.00" xmlns="http://www.w3.org/2000/svg" xmlns:xlink="http://www.w3.org/1999/xlink">
<g id="graph0" class="graph" transform="scale(1 1) rotate(0) translate(4 169)">
<title>lib/include/CloudSync/exceptions/resource/ResourceException.hpp</title>
<!-- Node1 -->
<g id="node1" class="node">
<title>Node1</title>
<g id="a_node1"><a xlink:title=" ">
<polygon fill="#bfbfbf" stroke="black" points="97,-123.5 97,-164.5 218,-164.5 218,-123.5 97,-123.5"/>
<text text-anchor="start" x="105" y="-152.5" font-family="Helvetica,sans-Serif" font-size="10.00">lib/include/CloudSync</text>
<text text-anchor="start" x="105" y="-141.5" font-family="Helvetica,sans-Serif" font-size="10.00">/exceptions/resource</text>
<text text-anchor="middle" x="157.5" y="-130.5" font-family="Helvetica,sans-Serif" font-size="10.00">/ResourceException.hpp</text>
</a>
</g>
</g>
<!-- Node2 -->
<g id="node2" class="node">
<title>Node2</title>
<g id="a_node2"><a xlink:href="_exception_8hpp.html" target="_top" xlink:title=" ">
<polygon fill="none" stroke="black" points="7,-56.5 7,-86.5 120,-86.5 120,-56.5 7,-56.5"/>
<text text-anchor="start" x="15" y="-74.5" font-family="Helvetica,sans-Serif" font-size="10.00">CloudSync/exceptions</text>
<text text-anchor="middle" x="63.5" y="-63.5" font-family="Helvetica,sans-Serif" font-size="10.00">/Exception.hpp</text>
</a>
</g>
</g>
<!-- Node1&#45;&gt;Node2 -->
<g id="edge1" class="edge">
<title>Node1&#45;&gt;Node2</title>
<path fill="none" stroke="midnightblue" d="M131.32,-123.36C118.57,-113.8 103.27,-102.33 90.43,-92.69"/>
<polygon fill="midnightblue" stroke="midnightblue" points="92.49,-89.87 82.39,-86.67 88.29,-95.47 92.49,-89.87"/>
</g>
<!-- Node5 -->
<g id="node5" class="node">
<title>Node5</title>
<g id="a_node5"><a xlink:title=" ">
<polygon fill="none" stroke="#bfbfbf" points="138,-62 138,-81 177,-81 177,-62 138,-62"/>
<text text-anchor="middle" x="157.5" y="-69" font-family="Helvetica,sans-Serif" font-size="10.00">utility</text>
</a>
</g>
</g>
<!-- Node1&#45;&gt;Node5 -->
<g id="edge4" class="edge">
<title>Node1&#45;&gt;Node5</title>
<path fill="none" stroke="midnightblue" d="M157.5,-123.36C157.5,-113.3 157.5,-101.1 157.5,-91.18"/>
<polygon fill="midnightblue" stroke="midnightblue" points="161,-91.17 157.5,-81.17 154,-91.17 161,-91.17"/>
</g>
<!-- Node6 -->
<g id="node6" class="node">
<title>Node6</title>
<g id="a_node6"><a xlink:title=" ">
<polygon fill="none" stroke="#bfbfbf" points="195.5,-62 195.5,-81 255.5,-81 255.5,-62 195.5,-62"/>
<text text-anchor="middle" x="225.5" y="-69" font-family="Helvetica,sans-Serif" font-size="10.00">filesystem</text>
</a>
</g>
</g>
<!-- Node1&#45;&gt;Node6 -->
<g id="edge5" class="edge">
<title>Node1&#45;&gt;Node6</title>
<path fill="none" stroke="midnightblue" d="M176.44,-123.36C186.98,-112.43 199.95,-98.99 209.9,-88.67"/>
<polygon fill="midnightblue" stroke="midnightblue" points="212.71,-90.8 217.13,-81.17 207.67,-85.94 212.71,-90.8"/>
</g>
<!-- Node3 -->
<g id="node3" class="node">
<title>Node3</title>
<g id="a_node3"><a xlink:title=" ">
<polygon fill="none" stroke="#bfbfbf" points="0,-0.5 0,-19.5 59,-19.5 59,-0.5 0,-0.5"/>
<text text-anchor="middle" x="29.5" y="-7.5" font-family="Helvetica,sans-Serif" font-size="10.00">stdexcept</text>
</a>
</g>
</g>
<!-- Node2&#45;&gt;Node3 -->
<g id="edge2" class="edge">
<title>Node2&#45;&gt;Node3</title>
<path fill="none" stroke="midnightblue" d="M55.44,-56.4C50.65,-48.02 44.54,-37.33 39.46,-28.42"/>
<polygon fill="midnightblue" stroke="midnightblue" points="42.45,-26.6 34.45,-19.66 36.37,-30.08 42.45,-26.6"/>
</g>
<!-- Node4 -->
<g id="node4" class="node">
<title>Node4</title>
<g id="a_node4"><a xlink:title=" ">
<polygon fill="none" stroke="#bfbfbf" points="77,-0.5 77,-19.5 118,-19.5 118,-0.5 77,-0.5"/>
<text text-anchor="middle" x="97.5" y="-7.5" font-family="Helvetica,sans-Serif" font-size="10.00">string</text>
</a>
</g>
</g>
<!-- Node2&#45;&gt;Node4 -->
<g id="edge3" class="edge">
<title>Node2&#45;&gt;Node4</title>
<path fill="none" stroke="midnightblue" d="M71.56,-56.4C76.35,-48.02 82.46,-37.33 87.54,-28.42"/>
<polygon fill="midnightblue" stroke="midnightblue" points="90.63,-30.08 92.55,-19.66 84.55,-26.6 90.63,-30.08"/>
</g>
</g>
</svg>
