<?xml version="1.0" encoding="UTF-8" standalone="no"?>
<!DOCTYPE svg PUBLIC "-//W3C//DTD SVG 1.1//EN"
 "http://www.w3.org/Graphics/SVG/1.1/DTD/svg11.dtd">
<!-- Generated by graphviz version 2.44.0 ()
 -->
<!-- Title: CloudSync::exceptions::resource::ResourceException Pages: 1 -->
<svg width="643pt" height="381pt"
 viewBox="0.00 0.00 642.50 381.00" xmlns="http://www.w3.org/2000/svg" xmlns:xlink="http://www.w3.org/1999/xlink">
<g id="graph0" class="graph" transform="scale(1 1) rotate(0) translate(4 377)">
<title>CloudSync::exceptions::resource::ResourceException</title>
<!-- Node1 -->
<g id="node1" class="node">
<title>Node1</title>
<g id="a_node1"><a xlink:title="Base&#45;exception for all resource&#45;related errors.">
<polygon fill="#bfbfbf" stroke="black" points="235,-105.5 235,-173.5 381,-173.5 381,-105.5 235,-105.5"/>
<text text-anchor="start" x="243" y="-161.5" font-family="Helvetica,sans-Serif" font-size="10.00">CloudSync::exceptions</text>
<text text-anchor="middle" x="308" y="-150.5" font-family="Helvetica,sans-Serif" font-size="10.00">::resource::ResourceException</text>
<polyline fill="none" stroke="black" points="235,-143.5 381,-143.5 "/>
<text text-anchor="start" x="243" y="-131.5" font-family="Helvetica,sans-Serif" font-size="10.00">+ path</text>
<polyline fill="none" stroke="black" points="235,-124.5 381,-124.5 "/>
<text text-anchor="start" x="243" y="-112.5" font-family="Helvetica,sans-Serif" font-size="10.00">+ ResourceException()</text>
</a>
</g>
</g>
<!-- Node4 -->
<g id="node4" class="node">
<title>Node4</title>
<g id="a_node4"><a xlink:href="class_cloud_sync_1_1exceptions_1_1resource_1_1_no_such_resource.html" target="_top" xlink:title="A resource with the requested type and name doesn&#39;t exist.">
<polygon fill="none" stroke="black" points="0,-0.5 0,-68.5 140,-68.5 140,-0.5 0,-0.5"/>
<text text-anchor="start" x="8" y="-56.5" font-family="Helvetica,sans-Serif" font-size="10.00">CloudSync::exceptions</text>
<text text-anchor="middle" x="70" y="-45.5" font-family="Helvetica,sans-Serif" font-size="10.00">::resource::NoSuchResource</text>
<polyline fill="none" stroke="black" points="0,-38.5 140,-38.5 "/>
<text text-anchor="middle" x="70" y="-26.5" font-family="Helvetica,sans-Serif" font-size="10.00"> </text>
<polyline fill="none" stroke="black" points="0,-19.5 140,-19.5 "/>
<text text-anchor="start" x="8" y="-7.5" font-family="Helvetica,sans-Serif" font-size="10.00">+ NoSuchResource()</text>
</a>
</g>
</g>
<!-- Node1&#45;&gt;Node4 -->
<g id="edge3" class="edge">
<title>Node1&#45;&gt;Node4</title>
<path fill="none" stroke="midnightblue" d="M225.64,-102.86C197.75,-90.79 166.88,-77.43 140.03,-65.81"/>
<polygon fill="none" stroke="midnightblue" points="224.41,-106.14 234.97,-106.9 227.19,-99.71 224.41,-106.14"/>
</g>
<!-- Node5 -->
<g id="node5" class="node">
<title>Node5</title>
<g id="a_node5"><a xlink:href="class_cloud_sync_1_1exceptions_1_1resource_1_1_permission_denied.html" target="_top" xlink:title="Forbidden action on a file or directory.">
<polygon fill="none" stroke="black" points="158,-0.5 158,-68.5 300,-68.5 300,-0.5 158,-0.5"/>
<text text-anchor="start" x="166" y="-56.5" font-family="Helvetica,sans-Serif" font-size="10.00">CloudSync::exceptions</text>
<text text-anchor="middle" x="229" y="-45.5" font-family="Helvetica,sans-Serif" font-size="10.00">::resource::PermissionDenied</text>
<polyline fill="none" stroke="black" points="158,-38.5 300,-38.5 "/>
<text text-anchor="middle" x="229" y="-26.5" font-family="Helvetica,sans-Serif" font-size="10.00"> </text>
<polyline fill="none" stroke="black" points="158,-19.5 300,-19.5 "/>
<text text-anchor="start" x="166" y="-7.5" font-family="Helvetica,sans-Serif" font-size="10.00">+ PermissionDenied()</text>
</a>
</g>
</g>
<!-- Node1&#45;&gt;Node5 -->
<g id="edge4" class="edge">
<title>Node1&#45;&gt;Node5</title>
<path fill="none" stroke="midnightblue" d="M276.29,-97.16C269.01,-87.66 261.36,-77.69 254.38,-68.59"/>
<polygon fill="none" stroke="midnightblue" points="273.71,-99.54 282.57,-105.34 279.26,-95.28 273.71,-99.54"/>
</g>
<!-- Node6 -->
<g id="node6" class="node">
<title>Node6</title>
<g id="a_node6"><a xlink:href="class_cloud_sync_1_1exceptions_1_1resource_1_1_resource_conflict.html" target="_top" xlink:title="A file or directory with this name already exists.">
<polygon fill="none" stroke="black" points="318.5,-0.5 318.5,-68.5 455.5,-68.5 455.5,-0.5 318.5,-0.5"/>
<text text-anchor="start" x="326.5" y="-56.5" font-family="Helvetica,sans-Serif" font-size="10.00">CloudSync::exceptions</text>
<text text-anchor="middle" x="387" y="-45.5" font-family="Helvetica,sans-Serif" font-size="10.00">::resource::ResourceConflict</text>
<polyline fill="none" stroke="black" points="318.5,-38.5 455.5,-38.5 "/>
<text text-anchor="middle" x="387" y="-26.5" font-family="Helvetica,sans-Serif" font-size="10.00"> </text>
<polyline fill="none" stroke="black" points="318.5,-19.5 455.5,-19.5 "/>
<text text-anchor="start" x="326.5" y="-7.5" font-family="Helvetica,sans-Serif" font-size="10.00">+ ResourceConflict()</text>
</a>
</g>
</g>
<!-- Node1&#45;&gt;Node6 -->
<g id="edge5" class="edge">
<title>Node1&#45;&gt;Node6</title>
<path fill="none" stroke="midnightblue" d="M339.71,-97.16C346.99,-87.66 354.64,-77.69 361.62,-68.59"/>
<polygon fill="none" stroke="midnightblue" points="336.74,-95.28 333.43,-105.34 342.29,-99.54 336.74,-95.28"/>
</g>
<!-- Node7 -->
<g id="node7" class="node">
<title>Node7</title>
<g id="a_node7"><a xlink:href="class_cloud_sync_1_1exceptions_1_1resource_1_1_resource_has_changed.html" target="_top" xlink:title="The resource has changed on the server.">
<polygon fill="none" stroke="black" points="473.5,-0.5 473.5,-68.5 634.5,-68.5 634.5,-0.5 473.5,-0.5"/>
<text text-anchor="start" x="481.5" y="-56.5" font-family="Helvetica,sans-Serif" font-size="10.00">CloudSync::exceptions</text>
<text text-anchor="middle" x="554" y="-45.5" font-family="Helvetica,sans-Serif" font-size="10.00">::resource::ResourceHasChanged</text>
<polyline fill="none" stroke="black" points="473.5,-38.5 634.5,-38.5 "/>
<text text-anchor="middle" x="554" y="-26.5" font-family="Helvetica,sans-Serif" font-size="10.00"> </text>
<polyline fill="none" stroke="black" points="473.5,-19.5 634.5,-19.5 "/>
<text text-anchor="start" x="481.5" y="-7.5" font-family="Helvetica,sans-Serif" font-size="10.00">+ ResourceHasChanged()</text>
</a>
</g>
</g>
<!-- Node1&#45;&gt;Node7 -->
<g id="edge6" class="edge">
<title>Node1&#45;&gt;Node7</title>
<path fill="none" stroke="midnightblue" d="M390.65,-103.89C417.92,-92.48 448.16,-79.81 475.14,-68.52"/>
<polygon fill="none" stroke="midnightblue" points="389.01,-100.78 381.14,-107.88 391.72,-107.24 389.01,-100.78"/>
</g>
<!-- Node2 -->
<g id="node2" class="node">
<title>Node2</title>
<g id="a_node2"><a xlink:href="class_cloud_sync_1_1exceptions_1_1_exception.html" target="_top" xlink:title="Super&#45;exception for all logical exceptions in this library.">
<polygon fill="none" stroke="black" points="251,-210.5 251,-278.5 365,-278.5 365,-210.5 251,-210.5"/>
<text text-anchor="start" x="259" y="-266.5" font-family="Helvetica,sans-Serif" font-size="10.00">CloudSync::exceptions</text>
<text text-anchor="middle" x="308" y="-255.5" font-family="Helvetica,sans-Serif" font-size="10.00">::Exception</text>
<polyline fill="none" stroke="black" points="251,-248.5 365,-248.5 "/>
<text text-anchor="middle" x="308" y="-236.5" font-family="Helvetica,sans-Serif" font-size="10.00"> </text>
<polyline fill="none" stroke="black" points="251,-229.5 365,-229.5 "/>
<text text-anchor="start" x="259" y="-217.5" font-family="Helvetica,sans-Serif" font-size="10.00">+ Exception()</text>
</a>
</g>
</g>
<!-- Node2&#45;&gt;Node1 -->
<g id="edge1" class="edge">
<title>Node2&#45;&gt;Node1</title>
<path fill="none" stroke="midnightblue" d="M308,-200.14C308,-191.26 308,-182.04 308,-173.59"/>
<polygon fill="none" stroke="midnightblue" points="304.5,-200.34 308,-210.34 311.5,-200.34 304.5,-200.34"/>
</g>
<!-- Node3 -->
<g id="node3" class="node">
<title>Node3</title>
<g id="a_node3"><a xlink:title=" ">
<polygon fill="none" stroke="#bfbfbf" points="262,-315.5 262,-372.5 354,-372.5 354,-315.5 262,-315.5"/>
<text text-anchor="middle" x="308" y="-360.5" font-family="Helvetica,sans-Serif" font-size="10.00">std::runtime_error</text>
<polyline fill="none" stroke="#bfbfbf" points="262,-353.5 354,-353.5 "/>
<text text-anchor="middle" x="308" y="-341.5" font-family="Helvetica,sans-Serif" font-size="10.00"> </text>
<polyline fill="none" stroke="#bfbfbf" points="262,-334.5 354,-334.5 "/>
<text text-anchor="middle" x="308" y="-322.5" font-family="Helvetica,sans-Serif" font-size="10.00"> </text>
</a>
</g>
</g>
<!-- Node3&#45;&gt;Node2 -->
<g id="edge2" class="edge">
<title>Node3&#45;&gt;Node2</title>
<path fill="none" stroke="midnightblue" d="M308,-305.06C308,-296.39 308,-287.24 308,-278.79"/>
<polygon fill="none" stroke="midnightblue" points="304.5,-305.32 308,-315.32 311.5,-305.32 304.5,-305.32"/>
</g>
</g>
</svg>
