<?xml version="1.0" encoding="UTF-8" standalone="no"?>
<!DOCTYPE svg PUBLIC "-//W3C//DTD SVG 1.1//EN"
 "http://www.w3.org/Graphics/SVG/1.1/DTD/svg11.dtd">
<!-- Generated by graphviz version 2.44.0 ()
 -->
<!-- Title: CloudSync::exceptions::cloud::CloudException Pages: 1 -->
<svg width="294pt" height="486pt"
 viewBox="0.00 0.00 294.00 486.00" xmlns="http://www.w3.org/2000/svg" xmlns:xlink="http://www.w3.org/1999/xlink">
<g id="graph0" class="graph" transform="scale(1 1) rotate(0) translate(4 482)">
<title>CloudSync::exceptions::cloud::CloudException</title>
<!-- Node1 -->
<g id="node1" class="node">
<title>Node1</title>
<g id="a_node1"><a xlink:title="Base&#45;exception for all cloud&#45;related errors.">
<polygon fill="#bfbfbf" stroke="black" points="83.5,-210.5 83.5,-278.5 199.5,-278.5 199.5,-210.5 83.5,-210.5"/>
<text text-anchor="start" x="91.5" y="-266.5" font-family="Helvetica,sans-Serif" font-size="10.00">CloudSync::exceptions</text>
<text text-anchor="middle" x="141.5" y="-255.5" font-family="Helvetica,sans-Serif" font-size="10.00">::cloud::CloudException</text>
<polyline fill="none" stroke="black" points="83.5,-248.5 199.5,-248.5 "/>
<text text-anchor="middle" x="141.5" y="-236.5" font-family="Helvetica,sans-Serif" font-size="10.00"> </text>
<polyline fill="none" stroke="black" points="83.5,-229.5 199.5,-229.5 "/>
<text text-anchor="start" x="91.5" y="-217.5" font-family="Helvetica,sans-Serif" font-size="10.00">+ CloudException()</text>
</a>
</g>
</g>
<!-- Node4 -->
<g id="node4" class="node">
<title>Node4</title>
<g id="a_node4"><a xlink:href="class_cloud_sync_1_1exceptions_1_1cloud_1_1_authorization_failed.html" target="_top" xlink:title="Thrown if authorization to the cloud has failed.">
<polygon fill="none" stroke="black" points="0,-105.5 0,-173.5 131,-173.5 131,-105.5 0,-105.5"/>
<text text-anchor="start" x="8" y="-161.5" font-family="Helvetica,sans-Serif" font-size="10.00">CloudSync::exceptions</text>
<text text-anchor="middle" x="65.5" y="-150.5" font-family="Helvetica,sans-Serif" font-size="10.00">::cloud::AuthorizationFailed</text>
<polyline fill="none" stroke="black" points="0,-143.5 131,-143.5 "/>
<text text-anchor="middle" x="65.5" y="-131.5" font-family="Helvetica,sans-Serif" font-size="10.00"> </text>
<polyline fill="none" stroke="black" points="0,-124.5 131,-124.5 "/>
<text text-anchor="start" x="8" y="-112.5" font-family="Helvetica,sans-Serif" font-size="10.00">+ AuthorizationFailed()</text>
</a>
</g>
</g>
<!-- Node1&#45;&gt;Node4 -->
<g id="edge3" class="edge">
<title>Node1&#45;&gt;Node4</title>
<path fill="none" stroke="midnightblue" d="M110.99,-202.16C103.99,-192.66 96.63,-182.69 89.92,-173.59"/>
<polygon fill="none" stroke="midnightblue" points="108.28,-204.37 117.03,-210.34 113.91,-200.22 108.28,-204.37"/>
</g>
<!-- Node5 -->
<g id="node5" class="node">
<title>Node5</title>
<g id="a_node5"><a xlink:href="class_cloud_sync_1_1exceptions_1_1cloud_1_1_communication_error.html" target="_top" xlink:title="Thrown if the communication to with the server failed.">
<polygon fill="none" stroke="black" points="149,-105.5 149,-173.5 286,-173.5 286,-105.5 149,-105.5"/>
<text text-anchor="start" x="157" y="-161.5" font-family="Helvetica,sans-Serif" font-size="10.00">CloudSync::exceptions</text>
<text text-anchor="middle" x="217.5" y="-150.5" font-family="Helvetica,sans-Serif" font-size="10.00">::cloud::CommunicationError</text>
<polyline fill="none" stroke="black" points="149,-143.5 286,-143.5 "/>
<text text-anchor="middle" x="217.5" y="-131.5" font-family="Helvetica,sans-Serif" font-size="10.00"> </text>
<polyline fill="none" stroke="black" points="149,-124.5 286,-124.5 "/>
<text text-anchor="start" x="157" y="-112.5" font-family="Helvetica,sans-Serif" font-size="10.00">+ CommunicationError()</text>
</a>
</g>
</g>
<!-- Node1&#45;&gt;Node5 -->
<g id="edge4" class="edge">
<title>Node1&#45;&gt;Node5</title>
<path fill="none" stroke="midnightblue" d="M172.01,-202.16C179.01,-192.66 186.37,-182.69 193.08,-173.59"/>
<polygon fill="none" stroke="midnightblue" points="169.09,-200.22 165.97,-210.34 174.72,-204.37 169.09,-200.22"/>
</g>
<!-- Node2 -->
<g id="node2" class="node">
<title>Node2</title>
<g id="a_node2"><a xlink:href="class_cloud_sync_1_1exceptions_1_1_exception.html" target="_top" xlink:title="Super&#45;exception for all logical exceptions in this library.">
<polygon fill="none" stroke="black" points="84.5,-315.5 84.5,-383.5 198.5,-383.5 198.5,-315.5 84.5,-315.5"/>
<text text-anchor="start" x="92.5" y="-371.5" font-family="Helvetica,sans-Serif" font-size="10.00">CloudSync::exceptions</text>
<text text-anchor="middle" x="141.5" y="-360.5" font-family="Helvetica,sans-Serif" font-size="10.00">::Exception</text>
<polyline fill="none" stroke="black" points="84.5,-353.5 198.5,-353.5 "/>
<text text-anchor="middle" x="141.5" y="-341.5" font-family="Helvetica,sans-Serif" font-size="10.00"> </text>
<polyline fill="none" stroke="black" points="84.5,-334.5 198.5,-334.5 "/>
<text text-anchor="start" x="92.5" y="-322.5" font-family="Helvetica,sans-Serif" font-size="10.00">+ Exception()</text>
</a>
</g>
</g>
<!-- Node2&#45;&gt;Node1 -->
<g id="edge1" class="edge">
<title>Node2&#45;&gt;Node1</title>
<path fill="none" stroke="midnightblue" d="M141.5,-305.14C141.5,-296.26 141.5,-287.04 141.5,-278.59"/>
<polygon fill="none" stroke="midnightblue" points="138,-305.34 141.5,-315.34 145,-305.34 138,-305.34"/>
</g>
<!-- Node3 -->
<g id="node3" class="node">
<title>Node3</title>
<g id="a_node3"><a xlink:title=" ">
<polygon fill="none" stroke="#bfbfbf" points="95.5,-420.5 95.5,-477.5 187.5,-477.5 187.5,-420.5 95.5,-420.5"/>
<text text-anchor="middle" x="141.5" y="-465.5" font-family="Helvetica,sans-Serif" font-size="10.00">std::runtime_error</text>
<polyline fill="none" stroke="#bfbfbf" points="95.5,-458.5 187.5,-458.5 "/>
<text text-anchor="middle" x="141.5" y="-446.5" font-family="Helvetica,sans-Serif" font-size="10.00"> </text>
<polyline fill="none" stroke="#bfbfbf" points="95.5,-439.5 187.5,-439.5 "/>
<text text-anchor="middle" x="141.5" y="-427.5" font-family="Helvetica,sans-Serif" font-size="10.00"> </text>
</a>
</g>
</g>
<!-- Node3&#45;&gt;Node2 -->
<g id="edge2" class="edge">
<title>Node3&#45;&gt;Node2</title>
<path fill="none" stroke="midnightblue" d="M141.5,-410.06C141.5,-401.39 141.5,-392.24 141.5,-383.79"/>
<polygon fill="none" stroke="midnightblue" points="138,-410.32 141.5,-420.32 145,-410.32 138,-410.32"/>
</g>
<!-- Node6 -->
<g id="node6" class="node">
<title>Node6</title>
<g id="a_node6"><a xlink:href="class_cloud_sync_1_1exceptions_1_1cloud_1_1_invalid_response.html" target="_top" xlink:title="Thrown if the server response cannot be parsed.">
<polygon fill="none" stroke="black" points="157,-0.5 157,-68.5 278,-68.5 278,-0.5 157,-0.5"/>
<text text-anchor="start" x="165" y="-56.5" font-family="Helvetica,sans-Serif" font-size="10.00">CloudSync::exceptions</text>
<text text-anchor="middle" x="217.5" y="-45.5" font-family="Helvetica,sans-Serif" font-size="10.00">::cloud::InvalidResponse</text>
<polyline fill="none" stroke="black" points="157,-38.5 278,-38.5 "/>
<text text-anchor="middle" x="217.5" y="-26.5" font-family="Helvetica,sans-Serif" font-size="10.00"> </text>
<polyline fill="none" stroke="black" points="157,-19.5 278,-19.5 "/>
<text text-anchor="start" x="165" y="-7.5" font-family="Helvetica,sans-Serif" font-size="10.00">+ InvalidResponse()</text>
</a>
</g>
</g>
<!-- Node5&#45;&gt;Node6 -->
<g id="edge5" class="edge">
<title>Node5&#45;&gt;Node6</title>
<path fill="none" stroke="midnightblue" d="M217.5,-95.14C217.5,-86.26 217.5,-77.04 217.5,-68.59"/>
<polygon fill="none" stroke="midnightblue" points="214,-95.34 217.5,-105.34 221,-95.34 214,-95.34"/>
</g>
</g>
</svg>
