<?xml version="1.0" encoding="UTF-8" standalone="no"?>
<!DOCTYPE svg PUBLIC "-//W3C//DTD SVG 1.1//EN"
 "http://www.w3.org/Graphics/SVG/1.1/DTD/svg11.dtd">
<!-- Generated by graphviz version 2.44.0 ()
 -->
<!-- Title: CloudSync::exceptions::resource::ResourceConflict Pages: 1 -->
<svg width="154pt" height="381pt"
 viewBox="0.00 0.00 154.00 381.00" xmlns="http://www.w3.org/2000/svg" xmlns:xlink="http://www.w3.org/1999/xlink">
<g id="graph0" class="graph" transform="scale(1 1) rotate(0) translate(4 377)">
<title>CloudSync::exceptions::resource::ResourceConflict</title>
<!-- Node1 -->
<g id="node1" class="node">
<title>Node1</title>
<g id="a_node1"><a xlink:title="A file or directory with this name already exists.">
<polygon fill="#bfbfbf" stroke="black" points="4.5,-0.5 4.5,-68.5 141.5,-68.5 141.5,-0.5 4.5,-0.5"/>
<text text-anchor="start" x="12.5" y="-56.5" font-family="Helvetica,sans-Serif" font-size="10.00">CloudSync::exceptions</text>
<text text-anchor="middle" x="73" y="-45.5" font-family="Helvetica,sans-Serif" font-size="10.00">::resource::ResourceConflict</text>
<polyline fill="none" stroke="black" points="4.5,-38.5 141.5,-38.5 "/>
<text text-anchor="middle" x="73" y="-26.5" font-family="Helvetica,sans-Serif" font-size="10.00"> </text>
<polyline fill="none" stroke="black" points="4.5,-19.5 141.5,-19.5 "/>
<text text-anchor="start" x="12.5" y="-7.5" font-family="Helvetica,sans-Serif" font-size="10.00">+ ResourceConflict()</text>
</a>
</g>
</g>
<!-- Node2 -->
<g id="node2" class="node">
<title>Node2</title>
<g id="a_node2"><a xlink:href="class_cloud_sync_1_1exceptions_1_1resource_1_1_resource_exception.html" target="_top" xlink:title="Base&#45;exception for all resource&#45;related errors.">
<polygon fill="none" stroke="black" points="0,-105.5 0,-173.5 146,-173.5 146,-105.5 0,-105.5"/>
<text text-anchor="start" x="8" y="-161.5" font-family="Helvetica,sans-Serif" font-size="10.00">CloudSync::exceptions</text>
<text text-anchor="middle" x="73" y="-150.5" font-family="Helvetica,sans-Serif" font-size="10.00">::resource::ResourceException</text>
<polyline fill="none" stroke="black" points="0,-143.5 146,-143.5 "/>
<text text-anchor="start" x="8" y="-131.5" font-family="Helvetica,sans-Serif" font-size="10.00">+ path</text>
<polyline fill="none" stroke="black" points="0,-124.5 146,-124.5 "/>
<text text-anchor="start" x="8" y="-112.5" font-family="Helvetica,sans-Serif" font-size="10.00">+ ResourceException()</text>
</a>
</g>
</g>
<!-- Node2&#45;&gt;Node1 -->
<g id="edge1" class="edge">
<title>Node2&#45;&gt;Node1</title>
<path fill="none" stroke="midnightblue" d="M73,-95.14C73,-86.26 73,-77.04 73,-68.59"/>
<polygon fill="none" stroke="midnightblue" points="69.5,-95.34 73,-105.34 76.5,-95.34 69.5,-95.34"/>
</g>
<!-- Node3 -->
<g id="node3" class="node">
<title>Node3</title>
<g id="a_node3"><a xlink:href="class_cloud_sync_1_1exceptions_1_1_exception.html" target="_top" xlink:title="Super&#45;exception for all logical exceptions in this library.">
<polygon fill="none" stroke="black" points="16,-210.5 16,-278.5 130,-278.5 130,-210.5 16,-210.5"/>
<text text-anchor="start" x="24" y="-266.5" font-family="Helvetica,sans-Serif" font-size="10.00">CloudSync::exceptions</text>
<text text-anchor="middle" x="73" y="-255.5" font-family="Helvetica,sans-Serif" font-size="10.00">::Exception</text>
<polyline fill="none" stroke="black" points="16,-248.5 130,-248.5 "/>
<text text-anchor="middle" x="73" y="-236.5" font-family="Helvetica,sans-Serif" font-size="10.00"> </text>
<polyline fill="none" stroke="black" points="16,-229.5 130,-229.5 "/>
<text text-anchor="start" x="24" y="-217.5" font-family="Helvetica,sans-Serif" font-size="10.00">+ Exception()</text>
</a>
</g>
</g>
<!-- Node3&#45;&gt;Node2 -->
<g id="edge2" class="edge">
<title>Node3&#45;&gt;Node2</title>
<path fill="none" stroke="midnightblue" d="M73,-200.14C73,-191.26 73,-182.04 73,-173.59"/>
<polygon fill="none" stroke="midnightblue" points="69.5,-200.34 73,-210.34 76.5,-200.34 69.5,-200.34"/>
</g>
<!-- Node4 -->
<g id="node4" class="node">
<title>Node4</title>
<g id="a_node4"><a xlink:title=" ">
<polygon fill="none" stroke="#bfbfbf" points="27,-315.5 27,-372.5 119,-372.5 119,-315.5 27,-315.5"/>
<text text-anchor="middle" x="73" y="-360.5" font-family="Helvetica,sans-Serif" font-size="10.00">std::runtime_error</text>
<polyline fill="none" stroke="#bfbfbf" points="27,-353.5 119,-353.5 "/>
<text text-anchor="middle" x="73" y="-341.5" font-family="Helvetica,sans-Serif" font-size="10.00"> </text>
<polyline fill="none" stroke="#bfbfbf" points="27,-334.5 119,-334.5 "/>
<text text-anchor="middle" x="73" y="-322.5" font-family="Helvetica,sans-Serif" font-size="10.00"> </text>
</a>
</g>
</g>
<!-- Node4&#45;&gt;Node3 -->
<g id="edge3" class="edge">
<title>Node4&#45;&gt;Node3</title>
<path fill="none" stroke="midnightblue" d="M73,-305.06C73,-296.39 73,-287.24 73,-278.79"/>
<polygon fill="none" stroke="midnightblue" points="69.5,-305.32 73,-315.32 76.5,-305.32 69.5,-305.32"/>
</g>
</g>
</svg>
