<?xml version="1.0" encoding="UTF-8" standalone="no"?>
<!DOCTYPE svg PUBLIC "-//W3C//DTD SVG 1.1//EN"
 "http://www.w3.org/Graphics/SVG/1.1/DTD/svg11.dtd">
<!-- Generated by graphviz version 2.44.0 ()
 -->
<!-- Title: CloudSync::Resource Pages: 1 -->
<svg width="216pt" height="248pt"
 viewBox="0.00 0.00 215.50 248.00" xmlns="http://www.w3.org/2000/svg" xmlns:xlink="http://www.w3.org/1999/xlink">
<g id="graph0" class="graph" transform="scale(1 1) rotate(0) translate(4 244)">
<title>CloudSync::Resource</title>
<!-- Node1 -->
<g id="node1" class="node">
<title>Node1</title>
<g id="a_node1"><a xlink:title="Common interface for both directories and files.">
<polygon fill="#bfbfbf" stroke="black" points="54.5,-149.5 54.5,-239.5 163.5,-239.5 163.5,-149.5 54.5,-149.5"/>
<text text-anchor="middle" x="109" y="-227.5" font-family="Helvetica,sans-Serif" font-size="10.00">CloudSync::Resource</text>
<polyline fill="none" stroke="black" points="54.5,-220.5 163.5,-220.5 "/>
<text text-anchor="middle" x="109" y="-208.5" font-family="Helvetica,sans-Serif" font-size="10.00"> </text>
<polyline fill="none" stroke="black" points="54.5,-201.5 163.5,-201.5 "/>
<text text-anchor="start" x="62.5" y="-189.5" font-family="Helvetica,sans-Serif" font-size="10.00">+ name()</text>
<text text-anchor="start" x="62.5" y="-178.5" font-family="Helvetica,sans-Serif" font-size="10.00">+ path()</text>
<text text-anchor="start" x="62.5" y="-167.5" font-family="Helvetica,sans-Serif" font-size="10.00">+ remove()</text>
<text text-anchor="start" x="62.5" y="-156.5" font-family="Helvetica,sans-Serif" font-size="10.00">+ is_file()</text>
</a>
</g>
</g>
<!-- Node2 -->
<g id="node2" class="node">
<title>Node2</title>
<g id="a_node2"><a xlink:href="class_cloud_sync_1_1_directory.html" target="_top" xlink:title="Provider&#45;independent representation of a directory.">
<polygon fill="none" stroke="black" points="0,-6 0,-107 106,-107 106,-6 0,-6"/>
<text text-anchor="middle" x="53" y="-95" font-family="Helvetica,sans-Serif" font-size="10.00">CloudSync::Directory</text>
<polyline fill="none" stroke="black" points="0,-88 106,-88 "/>
<text text-anchor="middle" x="53" y="-76" font-family="Helvetica,sans-Serif" font-size="10.00"> </text>
<polyline fill="none" stroke="black" points="0,-69 106,-69 "/>
<text text-anchor="start" x="8" y="-57" font-family="Helvetica,sans-Serif" font-size="10.00">+ list_resources()</text>
<text text-anchor="start" x="8" y="-46" font-family="Helvetica,sans-Serif" font-size="10.00">+ get_directory()</text>
<text text-anchor="start" x="8" y="-35" font-family="Helvetica,sans-Serif" font-size="10.00">+ create_directory()</text>
<text text-anchor="start" x="8" y="-24" font-family="Helvetica,sans-Serif" font-size="10.00">+ create_file()</text>
<text text-anchor="start" x="8" y="-13" font-family="Helvetica,sans-Serif" font-size="10.00">+ get_file()</text>
</a>
</g>
</g>
<!-- Node1&#45;&gt;Node2 -->
<g id="edge1" class="edge">
<title>Node1&#45;&gt;Node2</title>
<path fill="none" stroke="midnightblue" d="M86.96,-139.98C82.5,-129.14 77.82,-117.79 73.42,-107.09"/>
<polygon fill="none" stroke="midnightblue" points="83.77,-141.43 90.82,-149.34 90.25,-138.77 83.77,-141.43"/>
</g>
<!-- Node3 -->
<g id="node3" class="node">
<title>Node3</title>
<g id="a_node3"><a xlink:href="class_cloud_sync_1_1_file.html" target="_top" xlink:title="Provider&#45;independent representation of a file.">
<polygon fill="none" stroke="black" points="124.5,-0.5 124.5,-112.5 207.5,-112.5 207.5,-0.5 124.5,-0.5"/>
<text text-anchor="middle" x="166" y="-100.5" font-family="Helvetica,sans-Serif" font-size="10.00">CloudSync::File</text>
<polyline fill="none" stroke="black" points="124.5,-93.5 207.5,-93.5 "/>
<text text-anchor="middle" x="166" y="-81.5" font-family="Helvetica,sans-Serif" font-size="10.00"> </text>
<polyline fill="none" stroke="black" points="124.5,-74.5 207.5,-74.5 "/>
<text text-anchor="start" x="132.5" y="-62.5" font-family="Helvetica,sans-Serif" font-size="10.00">+ revision()</text>
<text text-anchor="start" x="132.5" y="-51.5" font-family="Helvetica,sans-Serif" font-size="10.00">+ read()</text>
<text text-anchor="start" x="132.5" y="-40.5" font-family="Helvetica,sans-Serif" font-size="10.00">+ read_binary()</text>
<text text-anchor="start" x="132.5" y="-29.5" font-family="Helvetica,sans-Serif" font-size="10.00">+ write()</text>
<text text-anchor="start" x="132.5" y="-18.5" font-family="Helvetica,sans-Serif" font-size="10.00">+ write_binary()</text>
<text text-anchor="start" x="132.5" y="-7.5" font-family="Helvetica,sans-Serif" font-size="10.00">+ poll_change()</text>
</a>
</g>
</g>
<!-- Node1&#45;&gt;Node3 -->
<g id="edge2" class="edge">
<title>Node1&#45;&gt;Node3</title>
<path fill="none" stroke="midnightblue" d="M131.47,-139.88C135.19,-131 139.06,-121.78 142.79,-112.87"/>
<polygon fill="none" stroke="midnightblue" points="128.14,-138.77 127.51,-149.34 134.6,-141.47 128.14,-138.77"/>
</g>
</g>
</svg>
