<?xml version="1.0" encoding="UTF-8" standalone="no"?>
<!DOCTYPE svg PUBLIC "-//W3C//DTD SVG 1.1//EN"
 "http://www.w3.org/Graphics/SVG/1.1/DTD/svg11.dtd">
<!-- Generated by graphviz version 2.44.0 ()
 -->
<!-- Title: CloudSync::exceptions::Exception Pages: 1 -->
<svg width="947pt" height="486pt"
 viewBox="0.00 0.00 947.00 486.00" xmlns="http://www.w3.org/2000/svg" xmlns:xlink="http://www.w3.org/1999/xlink">
<g id="graph0" class="graph" transform="scale(1 1) rotate(0) translate(4 482)">
<title>CloudSync::exceptions::Exception</title>
<!-- Node1 -->
<g id="node1" class="node">
<title>Node1</title>
<g id="a_node1"><a xlink:title="Super&#45;exception for all logical exceptions in this library.">
<polygon fill="#bfbfbf" stroke="black" points="318.5,-315.5 318.5,-383.5 432.5,-383.5 432.5,-315.5 318.5,-315.5"/>
<text text-anchor="start" x="326.5" y="-371.5" font-family="Helvetica,sans-Serif" font-size="10.00">CloudSync::exceptions</text>
<text text-anchor="middle" x="375.5" y="-360.5" font-family="Helvetica,sans-Serif" font-size="10.00">::Exception</text>
<polyline fill="none" stroke="black" points="318.5,-353.5 432.5,-353.5 "/>
<text text-anchor="middle" x="375.5" y="-341.5" font-family="Helvetica,sans-Serif" font-size="10.00"> </text>
<polyline fill="none" stroke="black" points="318.5,-334.5 432.5,-334.5 "/>
<text text-anchor="start" x="326.5" y="-322.5" font-family="Helvetica,sans-Serif" font-size="10.00">+ Exception()</text>
</a>
</g>
</g>
<!-- Node3 -->
<g id="node3" class="node">
<title>Node3</title>
<g id="a_node3"><a xlink:href="class_cloud_sync_1_1exceptions_1_1cloud_1_1_cloud_exception.html" target="_top" xlink:title="Base&#45;exception for all cloud&#45;related errors.">
<polygon fill="none" stroke="black" points="159.5,-210.5 159.5,-278.5 275.5,-278.5 275.5,-210.5 159.5,-210.5"/>
<text text-anchor="start" x="167.5" y="-266.5" font-family="Helvetica,sans-Serif" font-size="10.00">CloudSync::exceptions</text>
<text text-anchor="middle" x="217.5" y="-255.5" font-family="Helvetica,sans-Serif" font-size="10.00">::cloud::CloudException</text>
<polyline fill="none" stroke="black" points="159.5,-248.5 275.5,-248.5 "/>
<text text-anchor="middle" x="217.5" y="-236.5" font-family="Helvetica,sans-Serif" font-size="10.00"> </text>
<polyline fill="none" stroke="black" points="159.5,-229.5 275.5,-229.5 "/>
<text text-anchor="start" x="167.5" y="-217.5" font-family="Helvetica,sans-Serif" font-size="10.00">+ CloudException()</text>
</a>
</g>
</g>
<!-- Node1&#45;&gt;Node3 -->
<g id="edge2" class="edge">
<title>Node1&#45;&gt;Node3</title>
<path fill="none" stroke="midnightblue" d="M316.03,-309.73C300.31,-299.48 283.48,-288.51 268.27,-278.59"/>
<polygon fill="none" stroke="midnightblue" points="314.35,-312.81 324.64,-315.34 318.17,-306.95 314.35,-312.81"/>
</g>
<!-- Node7 -->
<g id="node7" class="node">
<title>Node7</title>
<g id="a_node7"><a xlink:href="class_cloud_sync_1_1exceptions_1_1resource_1_1_resource_exception.html" target="_top" xlink:title="Base&#45;exception for all resource&#45;related errors.">
<polygon fill="none" stroke="black" points="460.5,-210.5 460.5,-278.5 606.5,-278.5 606.5,-210.5 460.5,-210.5"/>
<text text-anchor="start" x="468.5" y="-266.5" font-family="Helvetica,sans-Serif" font-size="10.00">CloudSync::exceptions</text>
<text text-anchor="middle" x="533.5" y="-255.5" font-family="Helvetica,sans-Serif" font-size="10.00">::resource::ResourceException</text>
<polyline fill="none" stroke="black" points="460.5,-248.5 606.5,-248.5 "/>
<text text-anchor="start" x="468.5" y="-236.5" font-family="Helvetica,sans-Serif" font-size="10.00">+ path</text>
<polyline fill="none" stroke="black" points="460.5,-229.5 606.5,-229.5 "/>
<text text-anchor="start" x="468.5" y="-217.5" font-family="Helvetica,sans-Serif" font-size="10.00">+ ResourceException()</text>
</a>
</g>
</g>
<!-- Node1&#45;&gt;Node7 -->
<g id="edge6" class="edge">
<title>Node1&#45;&gt;Node7</title>
<path fill="none" stroke="midnightblue" d="M434.97,-309.73C450.69,-299.48 467.52,-288.51 482.73,-278.59"/>
<polygon fill="none" stroke="midnightblue" points="432.83,-306.95 426.36,-315.34 436.65,-312.81 432.83,-306.95"/>
</g>
<!-- Node2 -->
<g id="node2" class="node">
<title>Node2</title>
<g id="a_node2"><a xlink:title=" ">
<polygon fill="none" stroke="#bfbfbf" points="329.5,-420.5 329.5,-477.5 421.5,-477.5 421.5,-420.5 329.5,-420.5"/>
<text text-anchor="middle" x="375.5" y="-465.5" font-family="Helvetica,sans-Serif" font-size="10.00">std::runtime_error</text>
<polyline fill="none" stroke="#bfbfbf" points="329.5,-458.5 421.5,-458.5 "/>
<text text-anchor="middle" x="375.5" y="-446.5" font-family="Helvetica,sans-Serif" font-size="10.00"> </text>
<polyline fill="none" stroke="#bfbfbf" points="329.5,-439.5 421.5,-439.5 "/>
<text text-anchor="middle" x="375.5" y="-427.5" font-family="Helvetica,sans-Serif" font-size="10.00"> </text>
</a>
</g>
</g>
<!-- Node2&#45;&gt;Node1 -->
<g id="edge1" class="edge">
<title>Node2&#45;&gt;Node1</title>
<path fill="none" stroke="midnightblue" d="M375.5,-410.06C375.5,-401.39 375.5,-392.24 375.5,-383.79"/>
<polygon fill="none" stroke="midnightblue" points="372,-410.32 375.5,-420.32 379,-410.32 372,-410.32"/>
</g>
<!-- Node4 -->
<g id="node4" class="node">
<title>Node4</title>
<g id="a_node4"><a xlink:href="class_cloud_sync_1_1exceptions_1_1cloud_1_1_authorization_failed.html" target="_top" xlink:title="Thrown if authorization to the cloud has failed.">
<polygon fill="none" stroke="black" points="0,-105.5 0,-173.5 131,-173.5 131,-105.5 0,-105.5"/>
<text text-anchor="start" x="8" y="-161.5" font-family="Helvetica,sans-Serif" font-size="10.00">CloudSync::exceptions</text>
<text text-anchor="middle" x="65.5" y="-150.5" font-family="Helvetica,sans-Serif" font-size="10.00">::cloud::AuthorizationFailed</text>
<polyline fill="none" stroke="black" points="0,-143.5 131,-143.5 "/>
<text text-anchor="middle" x="65.5" y="-131.5" font-family="Helvetica,sans-Serif" font-size="10.00"> </text>
<polyline fill="none" stroke="black" points="0,-124.5 131,-124.5 "/>
<text text-anchor="start" x="8" y="-112.5" font-family="Helvetica,sans-Serif" font-size="10.00">+ AuthorizationFailed()</text>
</a>
</g>
</g>
<!-- Node3&#45;&gt;Node4 -->
<g id="edge3" class="edge">
<title>Node3&#45;&gt;Node4</title>
<path fill="none" stroke="midnightblue" d="M159.87,-204.45C144.86,-194.28 128.84,-183.42 114.34,-173.59"/>
<polygon fill="none" stroke="midnightblue" points="158.33,-207.63 168.57,-210.34 162.25,-201.84 158.33,-207.63"/>
</g>
<!-- Node5 -->
<g id="node5" class="node">
<title>Node5</title>
<g id="a_node5"><a xlink:href="class_cloud_sync_1_1exceptions_1_1cloud_1_1_communication_error.html" target="_top" xlink:title="Thrown if the communication to with the server failed.">
<polygon fill="none" stroke="black" points="149,-105.5 149,-173.5 286,-173.5 286,-105.5 149,-105.5"/>
<text text-anchor="start" x="157" y="-161.5" font-family="Helvetica,sans-Serif" font-size="10.00">CloudSync::exceptions</text>
<text text-anchor="middle" x="217.5" y="-150.5" font-family="Helvetica,sans-Serif" font-size="10.00">::cloud::CommunicationError</text>
<polyline fill="none" stroke="black" points="149,-143.5 286,-143.5 "/>
<text text-anchor="middle" x="217.5" y="-131.5" font-family="Helvetica,sans-Serif" font-size="10.00"> </text>
<polyline fill="none" stroke="black" points="149,-124.5 286,-124.5 "/>
<text text-anchor="start" x="157" y="-112.5" font-family="Helvetica,sans-Serif" font-size="10.00">+ CommunicationError()</text>
</a>
</g>
</g>
<!-- Node3&#45;&gt;Node5 -->
<g id="edge4" class="edge">
<title>Node3&#45;&gt;Node5</title>
<path fill="none" stroke="midnightblue" d="M217.5,-200.14C217.5,-191.26 217.5,-182.04 217.5,-173.59"/>
<polygon fill="none" stroke="midnightblue" points="214,-200.34 217.5,-210.34 221,-200.34 214,-200.34"/>
</g>
<!-- Node6 -->
<g id="node6" class="node">
<title>Node6</title>
<g id="a_node6"><a xlink:href="class_cloud_sync_1_1exceptions_1_1cloud_1_1_invalid_response.html" target="_top" xlink:title="Thrown if the server response cannot be parsed.">
<polygon fill="none" stroke="black" points="157,-0.5 157,-68.5 278,-68.5 278,-0.5 157,-0.5"/>
<text text-anchor="start" x="165" y="-56.5" font-family="Helvetica,sans-Serif" font-size="10.00">CloudSync::exceptions</text>
<text text-anchor="middle" x="217.5" y="-45.5" font-family="Helvetica,sans-Serif" font-size="10.00">::cloud::InvalidResponse</text>
<polyline fill="none" stroke="black" points="157,-38.5 278,-38.5 "/>
<text text-anchor="middle" x="217.5" y="-26.5" font-family="Helvetica,sans-Serif" font-size="10.00"> </text>
<polyline fill="none" stroke="black" points="157,-19.5 278,-19.5 "/>
<text text-anchor="start" x="165" y="-7.5" font-family="Helvetica,sans-Serif" font-size="10.00">+ InvalidResponse()</text>
</a>
</g>
</g>
<!-- Node5&#45;&gt;Node6 -->
<g id="edge5" class="edge">
<title>Node5&#45;&gt;Node6</title>
<path fill="none" stroke="midnightblue" d="M217.5,-95.14C217.5,-86.26 217.5,-77.04 217.5,-68.59"/>
<polygon fill="none" stroke="midnightblue" points="214,-95.34 217.5,-105.34 221,-95.34 214,-95.34"/>
</g>
<!-- Node8 -->
<g id="node8" class="node">
<title>Node8</title>
<g id="a_node8"><a xlink:href="class_cloud_sync_1_1exceptions_1_1resource_1_1_no_such_resource.html" target="_top" xlink:title="A resource with the requested type and name doesn&#39;t exist.">
<polygon fill="none" stroke="black" points="304.5,-105.5 304.5,-173.5 444.5,-173.5 444.5,-105.5 304.5,-105.5"/>
<text text-anchor="start" x="312.5" y="-161.5" font-family="Helvetica,sans-Serif" font-size="10.00">CloudSync::exceptions</text>
<text text-anchor="middle" x="374.5" y="-150.5" font-family="Helvetica,sans-Serif" font-size="10.00">::resource::NoSuchResource</text>
<polyline fill="none" stroke="black" points="304.5,-143.5 444.5,-143.5 "/>
<text text-anchor="middle" x="374.5" y="-131.5" font-family="Helvetica,sans-Serif" font-size="10.00"> </text>
<polyline fill="none" stroke="black" points="304.5,-124.5 444.5,-124.5 "/>
<text text-anchor="start" x="312.5" y="-112.5" font-family="Helvetica,sans-Serif" font-size="10.00">+ NoSuchResource()</text>
</a>
</g>
</g>
<!-- Node7&#45;&gt;Node8 -->
<g id="edge7" class="edge">
<title>Node7&#45;&gt;Node8</title>
<path fill="none" stroke="midnightblue" d="M473.66,-204.73C457.83,-194.48 440.9,-183.51 425.59,-173.59"/>
<polygon fill="none" stroke="midnightblue" points="472.02,-207.84 482.32,-210.34 475.83,-201.97 472.02,-207.84"/>
</g>
<!-- Node9 -->
<g id="node9" class="node">
<title>Node9</title>
<g id="a_node9"><a xlink:href="class_cloud_sync_1_1exceptions_1_1resource_1_1_permission_denied.html" target="_top" xlink:title="Forbidden action on a file or directory.">
<polygon fill="none" stroke="black" points="462.5,-105.5 462.5,-173.5 604.5,-173.5 604.5,-105.5 462.5,-105.5"/>
<text text-anchor="start" x="470.5" y="-161.5" font-family="Helvetica,sans-Serif" font-size="10.00">CloudSync::exceptions</text>
<text text-anchor="middle" x="533.5" y="-150.5" font-family="Helvetica,sans-Serif" font-size="10.00">::resource::PermissionDenied</text>
<polyline fill="none" stroke="black" points="462.5,-143.5 604.5,-143.5 "/>
<text text-anchor="middle" x="533.5" y="-131.5" font-family="Helvetica,sans-Serif" font-size="10.00"> </text>
<polyline fill="none" stroke="black" points="462.5,-124.5 604.5,-124.5 "/>
<text text-anchor="start" x="470.5" y="-112.5" font-family="Helvetica,sans-Serif" font-size="10.00">+ PermissionDenied()</text>
</a>
</g>
</g>
<!-- Node7&#45;&gt;Node9 -->
<g id="edge8" class="edge">
<title>Node7&#45;&gt;Node9</title>
<path fill="none" stroke="midnightblue" d="M533.5,-200.14C533.5,-191.26 533.5,-182.04 533.5,-173.59"/>
<polygon fill="none" stroke="midnightblue" points="530,-200.34 533.5,-210.34 537,-200.34 530,-200.34"/>
</g>
<!-- Node10 -->
<g id="node10" class="node">
<title>Node10</title>
<g id="a_node10"><a xlink:href="class_cloud_sync_1_1exceptions_1_1resource_1_1_resource_conflict.html" target="_top" xlink:title="A file or directory with this name already exists.">
<polygon fill="none" stroke="black" points="623,-105.5 623,-173.5 760,-173.5 760,-105.5 623,-105.5"/>
<text text-anchor="start" x="631" y="-161.5" font-family="Helvetica,sans-Serif" font-size="10.00">CloudSync::exceptions</text>
<text text-anchor="middle" x="691.5" y="-150.5" font-family="Helvetica,sans-Serif" font-size="10.00">::resource::ResourceConflict</text>
<polyline fill="none" stroke="black" points="623,-143.5 760,-143.5 "/>
<text text-anchor="middle" x="691.5" y="-131.5" font-family="Helvetica,sans-Serif" font-size="10.00"> </text>
<polyline fill="none" stroke="black" points="623,-124.5 760,-124.5 "/>
<text text-anchor="start" x="631" y="-112.5" font-family="Helvetica,sans-Serif" font-size="10.00">+ ResourceConflict()</text>
</a>
</g>
</g>
<!-- Node7&#45;&gt;Node10 -->
<g id="edge9" class="edge">
<title>Node7&#45;&gt;Node10</title>
<path fill="none" stroke="midnightblue" d="M592.97,-204.73C608.69,-194.48 625.52,-183.51 640.73,-173.59"/>
<polygon fill="none" stroke="midnightblue" points="590.83,-201.95 584.36,-210.34 594.65,-207.81 590.83,-201.95"/>
</g>
<!-- Node11 -->
<g id="node11" class="node">
<title>Node11</title>
<g id="a_node11"><a xlink:href="class_cloud_sync_1_1exceptions_1_1resource_1_1_resource_has_changed.html" target="_top" xlink:title="The resource has changed on the server.">
<polygon fill="none" stroke="black" points="778,-105.5 778,-173.5 939,-173.5 939,-105.5 778,-105.5"/>
<text text-anchor="start" x="786" y="-161.5" font-family="Helvetica,sans-Serif" font-size="10.00">CloudSync::exceptions</text>
<text text-anchor="middle" x="858.5" y="-150.5" font-family="Helvetica,sans-Serif" font-size="10.00">::resource::ResourceHasChanged</text>
<polyline fill="none" stroke="black" points="778,-143.5 939,-143.5 "/>
<text text-anchor="middle" x="858.5" y="-131.5" font-family="Helvetica,sans-Serif" font-size="10.00"> </text>
<polyline fill="none" stroke="black" points="778,-124.5 939,-124.5 "/>
<text text-anchor="start" x="786" y="-112.5" font-family="Helvetica,sans-Serif" font-size="10.00">+ ResourceHasChanged()</text>
</a>
</g>
</g>
<!-- Node7&#45;&gt;Node11 -->
<g id="edge10" class="edge">
<title>Node7&#45;&gt;Node11</title>
<path fill="none" stroke="midnightblue" d="M616.56,-220.65C662,-207.75 719.13,-190.87 769.5,-174 772.16,-173.11 774.86,-172.19 777.58,-171.25"/>
<polygon fill="none" stroke="midnightblue" points="615.43,-217.34 606.76,-223.43 617.33,-224.07 615.43,-217.34"/>
</g>
</g>
</svg>
