<?xml version="1.0" encoding="UTF-8" standalone="no"?>
<!DOCTYPE svg PUBLIC "-//W3C//DTD SVG 1.1//EN"
 "http://www.w3.org/Graphics/SVG/1.1/DTD/svg11.dtd">
<!-- Generated by graphviz version 2.44.0 ()
 -->
<!-- Title: CloudSync::File Pages: 1 -->
<svg width="117pt" height="248pt"
 viewBox="0.00 0.00 117.00 248.00" xmlns="http://www.w3.org/2000/svg" xmlns:xlink="http://www.w3.org/1999/xlink">
<g id="graph0" class="graph" transform="scale(1 1) rotate(0) translate(4 244)">
<title>CloudSync::File</title>
<!-- Node1 -->
<g id="node1" class="node">
<title>Node1</title>
<g id="a_node1"><a xlink:title="Provider&#45;independent representation of a file.">
<polygon fill="#bfbfbf" stroke="black" points="13,-0.5 13,-112.5 96,-112.5 96,-0.5 13,-0.5"/>
<text text-anchor="middle" x="54.5" y="-100.5" font-family="Helvetica,sans-Serif" font-size="10.00">CloudSync::File</text>
<polyline fill="none" stroke="black" points="13,-93.5 96,-93.5 "/>
<text text-anchor="middle" x="54.5" y="-81.5" font-family="Helvetica,sans-Serif" font-size="10.00"> </text>
<polyline fill="none" stroke="black" points="13,-74.5 96,-74.5 "/>
<text text-anchor="start" x="21" y="-62.5" font-family="Helvetica,sans-Serif" font-size="10.00">+ revision()</text>
<text text-anchor="start" x="21" y="-51.5" font-family="Helvetica,sans-Serif" font-size="10.00">+ read()</text>
<text text-anchor="start" x="21" y="-40.5" font-family="Helvetica,sans-Serif" font-size="10.00">+ read_binary()</text>
<text text-anchor="start" x="21" y="-29.5" font-family="Helvetica,sans-Serif" font-size="10.00">+ write()</text>
<text text-anchor="start" x="21" y="-18.5" font-family="Helvetica,sans-Serif" font-size="10.00">+ write_binary()</text>
<text text-anchor="start" x="21" y="-7.5" font-family="Helvetica,sans-Serif" font-size="10.00">+ poll_change()</text>
</a>
</g>
</g>
<!-- Node2 -->
<g id="node2" class="node">
<title>Node2</title>
<g id="a_node2"><a xlink:href="class_cloud_sync_1_1_resource.html" target="_top" xlink:title="Common interface for both directories and files.">
<polygon fill="none" stroke="black" points="0,-149.5 0,-239.5 109,-239.5 109,-149.5 0,-149.5"/>
<text text-anchor="middle" x="54.5" y="-227.5" font-family="Helvetica,sans-Serif" font-size="10.00">CloudSync::Resource</text>
<polyline fill="none" stroke="black" points="0,-220.5 109,-220.5 "/>
<text text-anchor="middle" x="54.5" y="-208.5" font-family="Helvetica,sans-Serif" font-size="10.00"> </text>
<polyline fill="none" stroke="black" points="0,-201.5 109,-201.5 "/>
<text text-anchor="start" x="8" y="-189.5" font-family="Helvetica,sans-Serif" font-size="10.00">+ name()</text>
<text text-anchor="start" x="8" y="-178.5" font-family="Helvetica,sans-Serif" font-size="10.00">+ path()</text>
<text text-anchor="start" x="8" y="-167.5" font-family="Helvetica,sans-Serif" font-size="10.00">+ remove()</text>
<text text-anchor="start" x="8" y="-156.5" font-family="Helvetica,sans-Serif" font-size="10.00">+ is_file()</text>
</a>
</g>
</g>
<!-- Node2&#45;&gt;Node1 -->
<g id="edge1" class="edge">
<title>Node2&#45;&gt;Node1</title>
<path fill="none" stroke="midnightblue" d="M54.5,-139.31C54.5,-130.61 54.5,-121.59 54.5,-112.87"/>
<polygon fill="none" stroke="midnightblue" points="51,-139.34 54.5,-149.34 58,-139.34 51,-139.34"/>
</g>
</g>
</svg>
