<?xml version="1.0" encoding="UTF-8" standalone="no"?>
<!DOCTYPE svg PUBLIC "-//W3C//DTD SVG 1.1//EN"
 "http://www.w3.org/Graphics/SVG/1.1/DTD/svg11.dtd">
<!-- Generated by graphviz version 2.44.0 ()
 -->
<!-- Title: CloudSync::exceptions::cloud::InvalidResponse Pages: 1 -->
<svg width="145pt" height="486pt"
 viewBox="0.00 0.00 145.00 486.00" xmlns="http://www.w3.org/2000/svg" xmlns:xlink="http://www.w3.org/1999/xlink">
<g id="graph0" class="graph" transform="scale(1 1) rotate(0) translate(4 482)">
<title>CloudSync::exceptions::cloud::InvalidResponse</title>
<!-- Node1 -->
<g id="node1" class="node">
<title>Node1</title>
<g id="a_node1"><a xlink:title="Thrown if the server response cannot be parsed.">
<polygon fill="#bfbfbf" stroke="black" points="8,-0.5 8,-68.5 129,-68.5 129,-0.5 8,-0.5"/>
<text text-anchor="start" x="16" y="-56.5" font-family="Helvetica,sans-Serif" font-size="10.00">CloudSync::exceptions</text>
<text text-anchor="middle" x="68.5" y="-45.5" font-family="Helvetica,sans-Serif" font-size="10.00">::cloud::InvalidResponse</text>
<polyline fill="none" stroke="black" points="8,-38.5 129,-38.5 "/>
<text text-anchor="middle" x="68.5" y="-26.5" font-family="Helvetica,sans-Serif" font-size="10.00"> </text>
<polyline fill="none" stroke="black" points="8,-19.5 129,-19.5 "/>
<text text-anchor="start" x="16" y="-7.5" font-family="Helvetica,sans-Serif" font-size="10.00">+ InvalidResponse()</text>
</a>
</g>
</g>
<!-- Node2 -->
<g id="node2" class="node">
<title>Node2</title>
<g id="a_node2"><a xlink:href="class_cloud_sync_1_1exceptions_1_1cloud_1_1_communication_error.html" target="_top" xlink:title="Thrown if the communication to with the server failed.">
<polygon fill="none" stroke="black" points="0,-105.5 0,-173.5 137,-173.5 137,-105.5 0,-105.5"/>
<text text-anchor="start" x="8" y="-161.5" font-family="Helvetica,sans-Serif" font-size="10.00">CloudSync::exceptions</text>
<text text-anchor="middle" x="68.5" y="-150.5" font-family="Helvetica,sans-Serif" font-size="10.00">::cloud::CommunicationError</text>
<polyline fill="none" stroke="black" points="0,-143.5 137,-143.5 "/>
<text text-anchor="middle" x="68.5" y="-131.5" font-family="Helvetica,sans-Serif" font-size="10.00"> </text>
<polyline fill="none" stroke="black" points="0,-124.5 137,-124.5 "/>
<text text-anchor="start" x="8" y="-112.5" font-family="Helvetica,sans-Serif" font-size="10.00">+ CommunicationError()</text>
</a>
</g>
</g>
<!-- Node2&#45;&gt;Node1 -->
<g id="edge1" class="edge">
<title>Node2&#45;&gt;Node1</title>
<path fill="none" stroke="midnightblue" d="M68.5,-95.14C68.5,-86.26 68.5,-77.04 68.5,-68.59"/>
<polygon fill="none" stroke="midnightblue" points="65,-95.34 68.5,-105.34 72,-95.34 65,-95.34"/>
</g>
<!-- Node3 -->
<g id="node3" class="node">
<title>Node3</title>
<g id="a_node3"><a xlink:href="class_cloud_sync_1_1exceptions_1_1cloud_1_1_cloud_exception.html" target="_top" xlink:title="Base&#45;exception for all cloud&#45;related errors.">
<polygon fill="none" stroke="black" points="10.5,-210.5 10.5,-278.5 126.5,-278.5 126.5,-210.5 10.5,-210.5"/>
<text text-anchor="start" x="18.5" y="-266.5" font-family="Helvetica,sans-Serif" font-size="10.00">CloudSync::exceptions</text>
<text text-anchor="middle" x="68.5" y="-255.5" font-family="Helvetica,sans-Serif" font-size="10.00">::cloud::CloudException</text>
<polyline fill="none" stroke="black" points="10.5,-248.5 126.5,-248.5 "/>
<text text-anchor="middle" x="68.5" y="-236.5" font-family="Helvetica,sans-Serif" font-size="10.00"> </text>
<polyline fill="none" stroke="black" points="10.5,-229.5 126.5,-229.5 "/>
<text text-anchor="start" x="18.5" y="-217.5" font-family="Helvetica,sans-Serif" font-size="10.00">+ CloudException()</text>
</a>
</g>
</g>
<!-- Node3&#45;&gt;Node2 -->
<g id="edge2" class="edge">
<title>Node3&#45;&gt;Node2</title>
<path fill="none" stroke="midnightblue" d="M68.5,-200.14C68.5,-191.26 68.5,-182.04 68.5,-173.59"/>
<polygon fill="none" stroke="midnightblue" points="65,-200.34 68.5,-210.34 72,-200.34 65,-200.34"/>
</g>
<!-- Node4 -->
<g id="node4" class="node">
<title>Node4</title>
<g id="a_node4"><a xlink:href="class_cloud_sync_1_1exceptions_1_1_exception.html" target="_top" xlink:title="Super&#45;exception for all logical exceptions in this library.">
<polygon fill="none" stroke="black" points="11.5,-315.5 11.5,-383.5 125.5,-383.5 125.5,-315.5 11.5,-315.5"/>
<text text-anchor="start" x="19.5" y="-371.5" font-family="Helvetica,sans-Serif" font-size="10.00">CloudSync::exceptions</text>
<text text-anchor="middle" x="68.5" y="-360.5" font-family="Helvetica,sans-Serif" font-size="10.00">::Exception</text>
<polyline fill="none" stroke="black" points="11.5,-353.5 125.5,-353.5 "/>
<text text-anchor="middle" x="68.5" y="-341.5" font-family="Helvetica,sans-Serif" font-size="10.00"> </text>
<polyline fill="none" stroke="black" points="11.5,-334.5 125.5,-334.5 "/>
<text text-anchor="start" x="19.5" y="-322.5" font-family="Helvetica,sans-Serif" font-size="10.00">+ Exception()</text>
</a>
</g>
</g>
<!-- Node4&#45;&gt;Node3 -->
<g id="edge3" class="edge">
<title>Node4&#45;&gt;Node3</title>
<path fill="none" stroke="midnightblue" d="M68.5,-305.14C68.5,-296.26 68.5,-287.04 68.5,-278.59"/>
<polygon fill="none" stroke="midnightblue" points="65,-305.34 68.5,-315.34 72,-305.34 65,-305.34"/>
</g>
<!-- Node5 -->
<g id="node5" class="node">
<title>Node5</title>
<g id="a_node5"><a xlink:title=" ">
<polygon fill="none" stroke="#bfbfbf" points="22.5,-420.5 22.5,-477.5 114.5,-477.5 114.5,-420.5 22.5,-420.5"/>
<text text-anchor="middle" x="68.5" y="-465.5" font-family="Helvetica,sans-Serif" font-size="10.00">std::runtime_error</text>
<polyline fill="none" stroke="#bfbfbf" points="22.5,-458.5 114.5,-458.5 "/>
<text text-anchor="middle" x="68.5" y="-446.5" font-family="Helvetica,sans-Serif" font-size="10.00"> </text>
<polyline fill="none" stroke="#bfbfbf" points="22.5,-439.5 114.5,-439.5 "/>
<text text-anchor="middle" x="68.5" y="-427.5" font-family="Helvetica,sans-Serif" font-size="10.00"> </text>
</a>
</g>
</g>
<!-- Node5&#45;&gt;Node4 -->
<g id="edge4" class="edge">
<title>Node5&#45;&gt;Node4</title>
<path fill="none" stroke="midnightblue" d="M68.5,-410.06C68.5,-401.39 68.5,-392.24 68.5,-383.79"/>
<polygon fill="none" stroke="midnightblue" points="65,-410.32 68.5,-420.32 72,-410.32 65,-410.32"/>
</g>
</g>
</svg>
