<?xml version="1.0" encoding="UTF-8" standalone="no"?>
<!DOCTYPE svg PUBLIC "-//W3C//DTD SVG 1.1//EN"
 "http://www.w3.org/Graphics/SVG/1.1/DTD/svg11.dtd">
<!-- Generated by graphviz version 2.44.0 ()
 -->
<!-- Title: CloudSync::Directory Pages: 1 -->
<svg width="117pt" height="237pt"
 viewBox="0.00 0.00 117.00 237.00" xmlns="http://www.w3.org/2000/svg" xmlns:xlink="http://www.w3.org/1999/xlink">
<g id="graph0" class="graph" transform="scale(1 1) rotate(0) translate(4 233)">
<title>CloudSync::Directory</title>
<!-- Node1 -->
<g id="node1" class="node">
<title>Node1</title>
<g id="a_node1"><a xlink:title="Provider&#45;independent representation of a directory.">
<polygon fill="#bfbfbf" stroke="black" points="1.5,-0.5 1.5,-101.5 107.5,-101.5 107.5,-0.5 1.5,-0.5"/>
<text text-anchor="middle" x="54.5" y="-89.5" font-family="Helvetica,sans-Serif" font-size="10.00">CloudSync::Directory</text>
<polyline fill="none" stroke="black" points="1.5,-82.5 107.5,-82.5 "/>
<text text-anchor="middle" x="54.5" y="-70.5" font-family="Helvetica,sans-Serif" font-size="10.00"> </text>
<polyline fill="none" stroke="black" points="1.5,-63.5 107.5,-63.5 "/>
<text text-anchor="start" x="9.5" y="-51.5" font-family="Helvetica,sans-Serif" font-size="10.00">+ list_resources()</text>
<text text-anchor="start" x="9.5" y="-40.5" font-family="Helvetica,sans-Serif" font-size="10.00">+ get_directory()</text>
<text text-anchor="start" x="9.5" y="-29.5" font-family="Helvetica,sans-Serif" font-size="10.00">+ create_directory()</text>
<text text-anchor="start" x="9.5" y="-18.5" font-family="Helvetica,sans-Serif" font-size="10.00">+ create_file()</text>
<text text-anchor="start" x="9.5" y="-7.5" font-family="Helvetica,sans-Serif" font-size="10.00">+ get_file()</text>
</a>
</g>
</g>
<!-- Node2 -->
<g id="node2" class="node">
<title>Node2</title>
<g id="a_node2"><a xlink:href="class_cloud_sync_1_1_resource.html" target="_top" xlink:title="Common interface for both directories and files.">
<polygon fill="none" stroke="black" points="0,-138.5 0,-228.5 109,-228.5 109,-138.5 0,-138.5"/>
<text text-anchor="middle" x="54.5" y="-216.5" font-family="Helvetica,sans-Serif" font-size="10.00">CloudSync::Resource</text>
<polyline fill="none" stroke="black" points="0,-209.5 109,-209.5 "/>
<text text-anchor="middle" x="54.5" y="-197.5" font-family="Helvetica,sans-Serif" font-size="10.00"> </text>
<polyline fill="none" stroke="black" points="0,-190.5 109,-190.5 "/>
<text text-anchor="start" x="8" y="-178.5" font-family="Helvetica,sans-Serif" font-size="10.00">+ name()</text>
<text text-anchor="start" x="8" y="-167.5" font-family="Helvetica,sans-Serif" font-size="10.00">+ path()</text>
<text text-anchor="start" x="8" y="-156.5" font-family="Helvetica,sans-Serif" font-size="10.00">+ remove()</text>
<text text-anchor="start" x="8" y="-145.5" font-family="Helvetica,sans-Serif" font-size="10.00">+ is_file()</text>
</a>
</g>
</g>
<!-- Node2&#45;&gt;Node1 -->
<g id="edge1" class="edge">
<title>Node2&#45;&gt;Node1</title>
<path fill="none" stroke="midnightblue" d="M54.5,-128.13C54.5,-119.31 54.5,-110.22 54.5,-101.52"/>
<polygon fill="none" stroke="midnightblue" points="51,-128.32 54.5,-138.32 58,-128.32 51,-128.32"/>
</g>
</g>
</svg>
