<?xml version="1.0" encoding="UTF-8" standalone="no"?>
<!DOCTYPE svg PUBLIC "-//W3C//DTD SVG 1.1//EN"
 "http://www.w3.org/Graphics/SVG/1.1/DTD/svg11.dtd">
<!-- Generated by graphviz version 2.44.0 ()
 -->
<!-- Title: CloudSync::exceptions::resource::ResourceHasChanged Pages: 1 -->
<svg width="169pt" height="381pt"
 viewBox="0.00 0.00 169.00 381.00" xmlns="http://www.w3.org/2000/svg" xmlns:xlink="http://www.w3.org/1999/xlink">
<g id="graph0" class="graph" transform="scale(1 1) rotate(0) translate(4 377)">
<title>CloudSync::exceptions::resource::ResourceHasChanged</title>
<!-- Node1 -->
<g id="node1" class="node">
<title>Node1</title>
<g id="a_node1"><a xlink:title="The resource has changed on the server.">
<polygon fill="#bfbfbf" stroke="black" points="0,-0.5 0,-68.5 161,-68.5 161,-0.5 0,-0.5"/>
<text text-anchor="start" x="8" y="-56.5" font-family="Helvetica,sans-Serif" font-size="10.00">CloudSync::exceptions</text>
<text text-anchor="middle" x="80.5" y="-45.5" font-family="Helvetica,sans-Serif" font-size="10.00">::resource::ResourceHasChanged</text>
<polyline fill="none" stroke="black" points="0,-38.5 161,-38.5 "/>
<text text-anchor="middle" x="80.5" y="-26.5" font-family="Helvetica,sans-Serif" font-size="10.00"> </text>
<polyline fill="none" stroke="black" points="0,-19.5 161,-19.5 "/>
<text text-anchor="start" x="8" y="-7.5" font-family="Helvetica,sans-Serif" font-size="10.00">+ ResourceHasChanged()</text>
</a>
</g>
</g>
<!-- Node2 -->
<g id="node2" class="node">
<title>Node2</title>
<g id="a_node2"><a xlink:href="class_cloud_sync_1_1exceptions_1_1resource_1_1_resource_exception.html" target="_top" xlink:title="Base&#45;exception for all resource&#45;related errors.">
<polygon fill="none" stroke="black" points="7.5,-105.5 7.5,-173.5 153.5,-173.5 153.5,-105.5 7.5,-105.5"/>
<text text-anchor="start" x="15.5" y="-161.5" font-family="Helvetica,sans-Serif" font-size="10.00">CloudSync::exceptions</text>
<text text-anchor="middle" x="80.5" y="-150.5" font-family="Helvetica,sans-Serif" font-size="10.00">::resource::ResourceException</text>
<polyline fill="none" stroke="black" points="7.5,-143.5 153.5,-143.5 "/>
<text text-anchor="start" x="15.5" y="-131.5" font-family="Helvetica,sans-Serif" font-size="10.00">+ path</text>
<polyline fill="none" stroke="black" points="7.5,-124.5 153.5,-124.5 "/>
<text text-anchor="start" x="15.5" y="-112.5" font-family="Helvetica,sans-Serif" font-size="10.00">+ ResourceException()</text>
</a>
</g>
</g>
<!-- Node2&#45;&gt;Node1 -->
<g id="edge1" class="edge">
<title>Node2&#45;&gt;Node1</title>
<path fill="none" stroke="midnightblue" d="M80.5,-95.14C80.5,-86.26 80.5,-77.04 80.5,-68.59"/>
<polygon fill="none" stroke="midnightblue" points="77,-95.34 80.5,-105.34 84,-95.34 77,-95.34"/>
</g>
<!-- Node3 -->
<g id="node3" class="node">
<title>Node3</title>
<g id="a_node3"><a xlink:href="class_cloud_sync_1_1exceptions_1_1_exception.html" target="_top" xlink:title="Super&#45;exception for all logical exceptions in this library.">
<polygon fill="none" stroke="black" points="23.5,-210.5 23.5,-278.5 137.5,-278.5 137.5,-210.5 23.5,-210.5"/>
<text text-anchor="start" x="31.5" y="-266.5" font-family="Helvetica,sans-Serif" font-size="10.00">CloudSync::exceptions</text>
<text text-anchor="middle" x="80.5" y="-255.5" font-family="Helvetica,sans-Serif" font-size="10.00">::Exception</text>
<polyline fill="none" stroke="black" points="23.5,-248.5 137.5,-248.5 "/>
<text text-anchor="middle" x="80.5" y="-236.5" font-family="Helvetica,sans-Serif" font-size="10.00"> </text>
<polyline fill="none" stroke="black" points="23.5,-229.5 137.5,-229.5 "/>
<text text-anchor="start" x="31.5" y="-217.5" font-family="Helvetica,sans-Serif" font-size="10.00">+ Exception()</text>
</a>
</g>
</g>
<!-- Node3&#45;&gt;Node2 -->
<g id="edge2" class="edge">
<title>Node3&#45;&gt;Node2</title>
<path fill="none" stroke="midnightblue" d="M80.5,-200.14C80.5,-191.26 80.5,-182.04 80.5,-173.59"/>
<polygon fill="none" stroke="midnightblue" points="77,-200.34 80.5,-210.34 84,-200.34 77,-200.34"/>
</g>
<!-- Node4 -->
<g id="node4" class="node">
<title>Node4</title>
<g id="a_node4"><a xlink:title=" ">
<polygon fill="none" stroke="#bfbfbf" points="34.5,-315.5 34.5,-372.5 126.5,-372.5 126.5,-315.5 34.5,-315.5"/>
<text text-anchor="middle" x="80.5" y="-360.5" font-family="Helvetica,sans-Serif" font-size="10.00">std::runtime_error</text>
<polyline fill="none" stroke="#bfbfbf" points="34.5,-353.5 126.5,-353.5 "/>
<text text-anchor="middle" x="80.5" y="-341.5" font-family="Helvetica,sans-Serif" font-size="10.00"> </text>
<polyline fill="none" stroke="#bfbfbf" points="34.5,-334.5 126.5,-334.5 "/>
<text text-anchor="middle" x="80.5" y="-322.5" font-family="Helvetica,sans-Serif" font-size="10.00"> </text>
</a>
</g>
</g>
<!-- Node4&#45;&gt;Node3 -->
<g id="edge3" class="edge">
<title>Node4&#45;&gt;Node3</title>
<path fill="none" stroke="midnightblue" d="M80.5,-305.06C80.5,-296.39 80.5,-287.24 80.5,-278.79"/>
<polygon fill="none" stroke="midnightblue" points="77,-305.32 80.5,-315.32 84,-305.32 77,-305.32"/>
</g>
</g>
</svg>
