<?xml version="1.0" encoding="UTF-8" standalone="no"?>
<!DOCTYPE svg PUBLIC "-//W3C//DTD SVG 1.1//EN"
 "http://www.w3.org/Graphics/SVG/1.1/DTD/svg11.dtd">
<!-- Generated by graphviz version 2.44.0 ()
 -->
<!-- Title: Graphical Class Hierarchy Pages: 1 -->
<svg width="259pt" height="66pt"
 viewBox="0.00 0.00 259.00 66.00" xmlns="http://www.w3.org/2000/svg" xmlns:xlink="http://www.w3.org/1999/xlink">
<g id="graph0" class="graph" transform="scale(1 1) rotate(0) translate(4 62)">
<title>Graphical Class Hierarchy</title>
<!-- Node0 -->
<g id="node1" class="node">
<title>Node0</title>
<g id="a_node1"><a xlink:href="class_cloud_sync_1_1_resource.html" target="_top" xlink:title="Common interface for both directories and files.">
<polygon fill="none" stroke="black" points="0,-19.5 0,-38.5 109,-38.5 109,-19.5 0,-19.5"/>
<text text-anchor="middle" x="54.5" y="-26.5" font-family="Helvetica,sans-Serif" font-size="10.00">CloudSync::Resource</text>
</a>
</g>
</g>
<!-- Node1 -->
<g id="node2" class="node">
<title>Node1</title>
<g id="a_node2"><a xlink:href="class_cloud_sync_1_1_directory.html" target="_top" xlink:title="Provider&#45;independent representation of a directory.">
<polygon fill="none" stroke="black" points="145,-38.5 145,-57.5 251,-57.5 251,-38.5 145,-38.5"/>
<text text-anchor="middle" x="198" y="-45.5" font-family="Helvetica,sans-Serif" font-size="10.00">CloudSync::Directory</text>
</a>
</g>
</g>
<!-- Node0&#45;&gt;Node1 -->
<g id="edge1" class="edge">
<title>Node0&#45;&gt;Node1</title>
<path fill="none" stroke="midnightblue" d="M119.55,-37.6C127.95,-38.73 136.48,-39.87 144.65,-40.97"/>
<polygon fill="midnightblue" stroke="midnightblue" points="119.78,-34.1 109.4,-36.24 118.84,-41.04 119.78,-34.1"/>
</g>
<!-- Node2 -->
<g id="node3" class="node">
<title>Node2</title>
<g id="a_node3"><a xlink:href="class_cloud_sync_1_1_file.html" target="_top" xlink:title="Provider&#45;independent representation of a file.">
<polygon fill="none" stroke="black" points="156.5,-0.5 156.5,-19.5 239.5,-19.5 239.5,-0.5 156.5,-0.5"/>
<text text-anchor="middle" x="198" y="-7.5" font-family="Helvetica,sans-Serif" font-size="10.00">CloudSync::File</text>
</a>
</g>
</g>
<!-- Node0&#45;&gt;Node2 -->
<g id="edge2" class="edge">
<title>Node0&#45;&gt;Node2</title>
<path fill="none" stroke="midnightblue" d="M119.41,-20.42C132,-18.73 144.89,-17 156.46,-15.44"/>
<polygon fill="midnightblue" stroke="midnightblue" points="118.84,-16.96 109.4,-21.76 119.78,-23.9 118.84,-16.96"/>
</g>
</g>
</svg>
