<?xml version="1.0" encoding="UTF-8" standalone="no"?>
<!DOCTYPE svg PUBLIC "-//W3C//DTD SVG 1.1//EN"
 "http://www.w3.org/Graphics/SVG/1.1/DTD/svg11.dtd">
<!-- Generated by graphviz version 2.44.0 ()
 -->
<!-- Title: Graphical Class Hierarchy Pages: 1 -->
<svg width="831pt" height="235pt"
 viewBox="0.00 0.00 831.00 235.00" xmlns="http://www.w3.org/2000/svg" xmlns:xlink="http://www.w3.org/1999/xlink">
<g id="graph0" class="graph" transform="scale(1 1) rotate(0) translate(4 231)">
<title>Graphical Class Hierarchy</title>
<!-- Node8 -->
<g id="node1" class="node">
<title>Node8</title>
<g id="a_node1"><a xlink:href="class_cloud_sync_1_1exceptions_1_1resource_1_1_resource_conflict.html" target="_top" xlink:title="A file or directory with this name already exists.">
<polygon fill="none" stroke="black" points="0,-96.5 0,-126.5 137,-126.5 137,-96.5 0,-96.5"/>
<text text-anchor="start" x="8" y="-114.5" font-family="Helvetica,sans-Serif" font-size="10.00">CloudSync::exceptions</text>
<text text-anchor="middle" x="68.5" y="-103.5" font-family="Helvetica,sans-Serif" font-size="10.00">::resource::ResourceConflict</text>
</a>
</g>
</g>
<!-- Node0 -->
<g id="node2" class="node">
<title>Node0</title>
<g id="a_node2"><a xlink:href="class_cloud_sync_1_1exceptions_1_1_exception.html" target="_top" xlink:title="Super&#45;exception for all logical exceptions in this library.">
<polygon fill="none" stroke="black" points="173,-118.5 173,-148.5 287,-148.5 287,-118.5 173,-118.5"/>
<text text-anchor="start" x="181" y="-136.5" font-family="Helvetica,sans-Serif" font-size="10.00">CloudSync::exceptions</text>
<text text-anchor="middle" x="230" y="-125.5" font-family="Helvetica,sans-Serif" font-size="10.00">::Exception</text>
</a>
</g>
</g>
<!-- Node8&#45;&gt;Node0 -->
<g id="edge1" class="edge">
<title>Node8&#45;&gt;Node0</title>
<path fill="none" stroke="midnightblue" d="M147.23,-122.22C155.87,-123.41 164.53,-124.61 172.82,-125.75"/>
<polygon fill="midnightblue" stroke="midnightblue" points="147.53,-118.73 137.14,-120.83 146.57,-125.66 147.53,-118.73"/>
</g>
<!-- Node1 -->
<g id="node3" class="node">
<title>Node1</title>
<g id="a_node3"><a xlink:href="class_cloud_sync_1_1exceptions_1_1cloud_1_1_cloud_exception.html" target="_top" xlink:title="Base&#45;exception for all cloud&#45;related errors.">
<polygon fill="none" stroke="black" points="338,-147.5 338,-177.5 454,-177.5 454,-147.5 338,-147.5"/>
<text text-anchor="start" x="346" y="-165.5" font-family="Helvetica,sans-Serif" font-size="10.00">CloudSync::exceptions</text>
<text text-anchor="middle" x="396" y="-154.5" font-family="Helvetica,sans-Serif" font-size="10.00">::cloud::CloudException</text>
</a>
</g>
</g>
<!-- Node0&#45;&gt;Node1 -->
<g id="edge2" class="edge">
<title>Node0&#45;&gt;Node1</title>
<path fill="none" stroke="midnightblue" d="M297.54,-145.27C310.92,-147.63 324.87,-150.1 337.9,-152.4"/>
<polygon fill="midnightblue" stroke="midnightblue" points="297.9,-141.77 287.44,-143.48 296.68,-148.67 297.9,-141.77"/>
</g>
<!-- Node5 -->
<g id="node7" class="node">
<title>Node5</title>
<g id="a_node7"><a xlink:href="class_cloud_sync_1_1exceptions_1_1resource_1_1_resource_exception.html" target="_top" xlink:title="Base&#45;exception for all resource&#45;related errors.">
<polygon fill="none" stroke="black" points="323,-74.5 323,-104.5 469,-104.5 469,-74.5 323,-74.5"/>
<text text-anchor="start" x="331" y="-92.5" font-family="Helvetica,sans-Serif" font-size="10.00">CloudSync::exceptions</text>
<text text-anchor="middle" x="396" y="-81.5" font-family="Helvetica,sans-Serif" font-size="10.00">::resource::ResourceException</text>
</a>
</g>
</g>
<!-- Node0&#45;&gt;Node5 -->
<g id="edge6" class="edge">
<title>Node0&#45;&gt;Node5</title>
<path fill="none" stroke="midnightblue" d="M296.98,-115.8C310.91,-112.06 325.48,-108.15 338.99,-104.53"/>
<polygon fill="midnightblue" stroke="midnightblue" points="295.73,-112.51 286.98,-118.48 297.55,-119.27 295.73,-112.51"/>
</g>
<!-- Node2 -->
<g id="node4" class="node">
<title>Node2</title>
<g id="a_node4"><a xlink:href="class_cloud_sync_1_1exceptions_1_1cloud_1_1_authorization_failed.html" target="_top" xlink:title="Thrown if authorization to the cloud has failed.">
<polygon fill="none" stroke="black" points="520,-196.5 520,-226.5 651,-226.5 651,-196.5 520,-196.5"/>
<text text-anchor="start" x="528" y="-214.5" font-family="Helvetica,sans-Serif" font-size="10.00">CloudSync::exceptions</text>
<text text-anchor="middle" x="585.5" y="-203.5" font-family="Helvetica,sans-Serif" font-size="10.00">::cloud::AuthorizationFailed</text>
</a>
</g>
</g>
<!-- Node1&#45;&gt;Node2 -->
<g id="edge3" class="edge">
<title>Node1&#45;&gt;Node2</title>
<path fill="none" stroke="midnightblue" d="M463.94,-179.99C484.48,-185.36 506.91,-191.22 526.78,-196.42"/>
<polygon fill="midnightblue" stroke="midnightblue" points="464.58,-176.54 454.02,-177.4 462.81,-183.32 464.58,-176.54"/>
</g>
<!-- Node3 -->
<g id="node5" class="node">
<title>Node3</title>
<g id="a_node5"><a xlink:href="class_cloud_sync_1_1exceptions_1_1cloud_1_1_communication_error.html" target="_top" xlink:title="Thrown if the communication to with the server failed.">
<polygon fill="none" stroke="black" points="517,-147.5 517,-177.5 654,-177.5 654,-147.5 517,-147.5"/>
<text text-anchor="start" x="525" y="-165.5" font-family="Helvetica,sans-Serif" font-size="10.00">CloudSync::exceptions</text>
<text text-anchor="middle" x="585.5" y="-154.5" font-family="Helvetica,sans-Serif" font-size="10.00">::cloud::CommunicationError</text>
</a>
</g>
</g>
<!-- Node1&#45;&gt;Node3 -->
<g id="edge4" class="edge">
<title>Node1&#45;&gt;Node3</title>
<path fill="none" stroke="midnightblue" d="M464.45,-162.5C481.5,-162.5 499.81,-162.5 516.87,-162.5"/>
<polygon fill="midnightblue" stroke="midnightblue" points="464.02,-159 454.02,-162.5 464.02,-166 464.02,-159"/>
</g>
<!-- Node4 -->
<g id="node6" class="node">
<title>Node4</title>
<g id="a_node6"><a xlink:href="class_cloud_sync_1_1exceptions_1_1cloud_1_1_invalid_response.html" target="_top" xlink:title="Thrown if the server response cannot be parsed.">
<polygon fill="none" stroke="black" points="702,-147.5 702,-177.5 823,-177.5 823,-147.5 702,-147.5"/>
<text text-anchor="start" x="710" y="-165.5" font-family="Helvetica,sans-Serif" font-size="10.00">CloudSync::exceptions</text>
<text text-anchor="middle" x="762.5" y="-154.5" font-family="Helvetica,sans-Serif" font-size="10.00">::cloud::InvalidResponse</text>
</a>
</g>
</g>
<!-- Node3&#45;&gt;Node4 -->
<g id="edge5" class="edge">
<title>Node3&#45;&gt;Node4</title>
<path fill="none" stroke="midnightblue" d="M664.18,-162.5C676.77,-162.5 689.64,-162.5 701.72,-162.5"/>
<polygon fill="midnightblue" stroke="midnightblue" points="664.16,-159 654.16,-162.5 664.16,-166 664.16,-159"/>
</g>
<!-- Node5&#45;&gt;Node8 -->
<g id="edge9" class="edge">
<title>Node5&#45;&gt;Node8</title>
<path fill="none" stroke="midnightblue" d="M312.46,-95.08C258.28,-98.74 188.27,-103.47 137.34,-106.91"/>
<polygon fill="midnightblue" stroke="midnightblue" points="312.99,-98.55 322.73,-94.38 312.52,-91.57 312.99,-98.55"/>
</g>
<!-- Node6 -->
<g id="node8" class="node">
<title>Node6</title>
<g id="a_node8"><a xlink:href="class_cloud_sync_1_1exceptions_1_1resource_1_1_no_such_resource.html" target="_top" xlink:title="A resource with the requested type and name doesn&#39;t exist.">
<polygon fill="none" stroke="black" points="515.5,-98.5 515.5,-128.5 655.5,-128.5 655.5,-98.5 515.5,-98.5"/>
<text text-anchor="start" x="523.5" y="-116.5" font-family="Helvetica,sans-Serif" font-size="10.00">CloudSync::exceptions</text>
<text text-anchor="middle" x="585.5" y="-105.5" font-family="Helvetica,sans-Serif" font-size="10.00">::resource::NoSuchResource</text>
</a>
</g>
</g>
<!-- Node5&#45;&gt;Node6 -->
<g id="edge7" class="edge">
<title>Node5&#45;&gt;Node6</title>
<path fill="none" stroke="midnightblue" d="M479.27,-100.03C491.33,-101.57 503.64,-103.15 515.4,-104.65"/>
<polygon fill="midnightblue" stroke="midnightblue" points="479.59,-96.54 469.22,-98.74 478.7,-103.49 479.59,-96.54"/>
</g>
<!-- Node7 -->
<g id="node9" class="node">
<title>Node7</title>
<g id="a_node9"><a xlink:href="class_cloud_sync_1_1exceptions_1_1resource_1_1_permission_denied.html" target="_top" xlink:title="Forbidden action on a file or directory.">
<polygon fill="none" stroke="black" points="514.5,-49.5 514.5,-79.5 656.5,-79.5 656.5,-49.5 514.5,-49.5"/>
<text text-anchor="start" x="522.5" y="-67.5" font-family="Helvetica,sans-Serif" font-size="10.00">CloudSync::exceptions</text>
<text text-anchor="middle" x="585.5" y="-56.5" font-family="Helvetica,sans-Serif" font-size="10.00">::resource::PermissionDenied</text>
</a>
</g>
</g>
<!-- Node5&#45;&gt;Node7 -->
<g id="edge8" class="edge">
<title>Node5&#45;&gt;Node7</title>
<path fill="none" stroke="midnightblue" d="M479.42,-78.51C491.11,-76.95 503.05,-75.36 514.47,-73.84"/>
<polygon fill="midnightblue" stroke="midnightblue" points="478.67,-75.08 469.22,-79.87 479.6,-82.02 478.67,-75.08"/>
</g>
<!-- Node9 -->
<g id="node10" class="node">
<title>Node9</title>
<g id="a_node10"><a xlink:href="class_cloud_sync_1_1exceptions_1_1resource_1_1_resource_has_changed.html" target="_top" xlink:title="The resource has changed on the server.">
<polygon fill="none" stroke="black" points="505,-0.5 505,-30.5 666,-30.5 666,-0.5 505,-0.5"/>
<text text-anchor="start" x="513" y="-18.5" font-family="Helvetica,sans-Serif" font-size="10.00">CloudSync::exceptions</text>
<text text-anchor="middle" x="585.5" y="-7.5" font-family="Helvetica,sans-Serif" font-size="10.00">::resource::ResourceHasChanged</text>
</a>
</g>
</g>
<!-- Node5&#45;&gt;Node9 -->
<g id="edge10" class="edge">
<title>Node5&#45;&gt;Node9</title>
<path fill="none" stroke="midnightblue" d="M436,-69.83C456.29,-60.02 481.66,-48.38 505,-39.5 513.22,-36.37 522.04,-33.38 530.7,-30.62"/>
<polygon fill="midnightblue" stroke="midnightblue" points="434.22,-66.8 426.77,-74.34 437.3,-73.09 434.22,-66.8"/>
</g>
</g>
</svg>
